<svg width="22" height="22" viewBox="0 0 22 22" fill="none" xmlns="http://www.w3.org/2000/svg">
<path d="M11.6411 15.5722L15.4684 16.5996C15.7573 16.6773 15.9839 16.3492 15.8088 16.1065L15.5046 15.6848C15.3242 15.4349 15.3899 15.0851 15.6485 14.9173L19.4168 12.475C19.546 12.391 19.5476 12.2025 19.4196 12.117L18.947 11.8002C18.6075 11.573 18.4403 11.1619 18.5249 10.7624L18.7213 9.83213C18.7851 9.52979 18.528 9.25636 18.2222 9.30161L17.1103 9.46599C16.7542 9.51879 16.4038 9.33933 16.2384 9.0197L15.9066 8.37856C15.7645 8.1045 15.3977 8.04636 15.178 8.26322L14.431 9.00084C14.3006 9.1297 14.0824 9.01059 14.1202 8.83144L14.7805 5.67633C14.8389 5.39756 14.5793 5.15681 14.3056 5.23601L13.2939 5.52893C12.8869 5.64679 12.4538 5.4579 12.263 5.07919L11.3981 3.36099C11.2696 3.10579 10.905 3.10579 10.7765 3.36099L9.91156 5.07919C9.7211 5.45759 9.2877 5.64647 8.8807 5.52893L7.86902 5.23601C7.59527 5.15681 7.33599 5.39756 7.39413 5.67633L8.05476 8.83144C8.09216 9.01059 7.87436 9.1297 7.74393 9.00084L6.99687 8.26322C6.77719 8.04636 6.4101 8.1045 6.26836 8.37856L5.93647 9.0197C5.77084 9.33933 5.42073 9.51879 5.06464 9.46599L3.9527 9.30161C3.6469 9.25636 3.38982 9.52979 3.45362 9.83213L3.65004 10.7624C3.73427 11.1622 3.56739 11.573 3.22796 11.8002L2.75527 12.117C2.62736 12.2028 2.62862 12.3914 2.7581 12.475L6.52639 14.9173C6.78504 15.0848 6.85042 15.4349 6.67033 15.6848L6.3661 16.1065C6.19104 16.3492 6.41733 16.6773 6.70647 16.5996L10.5338 15.5722C10.8962 15.4748 11.2784 15.4748 11.6411 15.5722Z" stroke="#C44536" stroke-width="1.2" stroke-miterlimit="10" stroke-linecap="round" stroke-linejoin="round"/>
<path d="M11 19L11 10" stroke="#C44536" stroke-width="1.2" stroke-miterlimit="10" stroke-linecap="round" stroke-linejoin="round"/>
</svg>
