<svg width="96" height="89" viewBox="0 0 96 89" fill="none" xmlns="http://www.w3.org/2000/svg">
<path d="M50.968 69.2316L71.6706 74.7889C73.2329 75.2088 74.4586 73.434 73.5117 72.1216L71.8661 69.8402C70.8903 68.4887 71.2456 66.5966 72.6447 65.6888L93.0277 52.4781C93.7264 52.0242 93.7349 51.0042 93.043 50.5418L90.4862 48.8282C88.6502 47.5991 87.7458 45.3755 88.2031 43.2148L89.2656 38.1828C89.6107 36.5474 88.2201 35.0684 86.566 35.3132L80.5514 36.2023C78.6253 36.4879 76.7298 35.5172 75.8356 33.7883L74.0404 30.3203C73.272 28.8379 71.2881 28.5234 70.0998 29.6964L66.0589 33.6863C65.3534 34.3833 64.1736 33.739 64.3776 32.77L67.9493 15.7037C68.2655 14.1958 66.8613 12.8936 65.3806 13.322L59.9083 14.9064C57.7068 15.5439 55.3642 14.5222 54.3323 12.4737L49.6539 3.1798C48.9586 1.7994 46.9866 1.7994 46.2913 3.1798L41.6129 12.4737C40.5827 14.5205 38.2384 15.5422 36.0369 14.9064L30.5646 13.322C29.0839 12.8936 27.6814 14.1958 27.9959 15.7037L31.5693 32.77C31.7716 33.739 30.5935 34.3833 29.888 33.6863L25.8471 29.6964C24.6588 28.5234 22.6732 28.8379 21.9065 30.3203L20.1113 33.7883C19.2154 35.5172 17.3216 36.4879 15.3955 36.2023L9.3809 35.3132C7.7268 35.0684 6.3362 36.5474 6.6813 38.1828L7.7438 43.2148C8.1994 45.3772 7.2967 47.5991 5.4607 48.8282L2.9039 50.5418C2.212 51.0059 2.2188 52.0259 2.9192 52.4781L23.3022 65.6888C24.7013 66.5949 25.0549 68.4887 24.0808 69.8402L22.4352 72.1216C21.4883 73.434 22.7123 75.2088 24.2763 74.7889L44.9789 69.2316C46.939 68.7046 49.0062 68.7046 50.968 69.2316Z" stroke="#283618" stroke-width="4" stroke-miterlimit="10" stroke-linecap="round" stroke-linejoin="round"/>
<path d="M48.0002 87L48.0002 23" stroke="#283618" stroke-width="4" stroke-miterlimit="10" stroke-linecap="round" stroke-linejoin="round"/>
<path d="M22.1599 50.2919L47.9727 68.8355" stroke="#283618" stroke-width="4" stroke-miterlimit="10" stroke-linecap="round" stroke-linejoin="round"/>
<path d="M37.912 39.2419L35.0662 59.5637" stroke="#283618" stroke-width="4" stroke-miterlimit="10" stroke-linecap="round" stroke-linejoin="round"/>
<path d="M73.7838 50.2919L47.9727 68.8355" stroke="#283618" stroke-width="4" stroke-miterlimit="10" stroke-linecap="round" stroke-linejoin="round"/>
<path d="M58.0332 39.2419L60.879 59.5637" stroke="#283618" stroke-width="4" stroke-miterlimit="10" stroke-linecap="round" stroke-linejoin="round"/>
</svg>
