<svg width="90" height="90" viewBox="0 0 90 90" fill="none" xmlns="http://www.w3.org/2000/svg">
<path d="M44.9999 66C56.5979 66 65.9999 56.598 65.9999 45C65.9999 33.402 56.5979 24 44.9999 24C33.4019 24 23.9999 33.402 23.9999 45C23.9999 56.598 33.4019 66 44.9999 66Z" stroke="#025F38" stroke-width="4" stroke-linecap="round" stroke-linejoin="round"/>
<path d="M44.9999 2V14" stroke="#025F38" stroke-width="4" stroke-linecap="round" stroke-linejoin="round"/>
<path d="M74.9999 14L66.9999 23" stroke="#025F38" stroke-width="4" stroke-linecap="round" stroke-linejoin="round"/>
<path d="M87.9999 45H75.9999" stroke="#025F38" stroke-width="4" stroke-linecap="round" stroke-linejoin="round"/>
<path d="M74.9999 75L66.9999 67" stroke="#025F38" stroke-width="4" stroke-linecap="round" stroke-linejoin="round"/>
<path d="M44.9999 88V76" stroke="#025F38" stroke-width="4" stroke-linecap="round" stroke-linejoin="round"/>
<path d="M13.9999 75L22.9999 67" stroke="#025F38" stroke-width="4" stroke-linecap="round" stroke-linejoin="round"/>
<path d="M1.99988 45H13.9999" stroke="#025F38" stroke-width="4" stroke-linecap="round" stroke-linejoin="round"/>
<path d="M13.9999 14L22.9999 23" stroke="#025F38" stroke-width="4" stroke-linecap="round" stroke-linejoin="round"/>
<path d="M31.9999 14L32.9999 17" stroke="#025F38" stroke-width="4" stroke-linecap="round" stroke-linejoin="round"/>
<path d="M9.99988 31L16.9999 33" stroke="#025F38" stroke-width="4" stroke-linecap="round" stroke-linejoin="round"/>
<path d="M12.9999 58L16.9999 57" stroke="#025F38" stroke-width="4" stroke-linecap="round" stroke-linejoin="round"/>
<path d="M31.9999 77L32.9999 73" stroke="#025F38" stroke-width="4" stroke-linecap="round" stroke-linejoin="round"/>
<path d="M57.9999 76L56.9999 73" stroke="#025F38" stroke-width="4" stroke-linecap="round" stroke-linejoin="round"/>
<path d="M78.9999 59L72.9999 57" stroke="#025F38" stroke-width="4" stroke-linecap="round" stroke-linejoin="round"/>
<path d="M78.9999 31L72.9999 33" stroke="#025F38" stroke-width="4" stroke-linecap="round" stroke-linejoin="round"/>
<path d="M57.9999 14L56.9999 17" stroke="#025F38" stroke-width="4" stroke-linecap="round" stroke-linejoin="round"/>
</svg>
