<svg width="16" height="16" viewBox="0 0 16 16" fill="none" xmlns="http://www.w3.org/2000/svg">
<path d="M12.8519 9.80023C13.3663 10.336 13.6844 11.0748 13.6844 11.8866C13.6844 13.5225 12.4003 14.8498 10.8177 14.8498C9.69453 14.8498 8.72847 14.1841 8.25722 13.214C7.81739 14.2653 6.80421 15 5.62609 15C4.04348 15 2.75933 13.6727 2.75933 12.0368C2.75933 11.2981 3.02244 10.6202 3.45834 10.1006C2.06816 9.89765 1 8.65961 1 7.1699C1 5.53407 2.28415 4.20673 3.86676 4.20673C4.3223 4.20673 4.75428 4.31632 5.1352 4.51116C5.10379 4.33256 5.08415 4.1499 5.08415 3.96318C5.08415 2.32734 6.3683 1 7.95091 1C9.53352 1 10.8177 2.32734 10.8177 3.96318C10.8177 4.07683 10.8137 4.19049 10.798 4.30415C11.1947 4.08495 11.6502 3.96318 12.1332 3.96318C13.7158 3.96318 15 5.29052 15 6.92636C15 8.30647 14.085 9.46738 12.8519 9.79617V9.80023Z" stroke="#FF2E71" stroke-width="1.2" stroke-linecap="round" stroke-linejoin="round"/>
<path d="M10.7765 9.03147C11.0717 9.33628 11.2556 9.76035 11.2556 10.2242C11.2556 11.1607 10.5198 11.9161 9.61711 11.9161C8.9754 11.9161 8.41925 11.5362 8.14973 10.9796C7.89733 11.5803 7.31979 12 6.64385 12C5.7369 12 5.00535 11.2402 5.00535 10.3081C5.00535 9.88404 5.15508 9.49972 5.40749 9.19934C4.61177 9.08448 4 8.37769 4 7.52071C4 6.58421 4.73583 5.82882 5.6385 5.82882C5.89947 5.82882 6.14759 5.89067 6.36578 6.00552C6.34866 5.90392 6.33583 5.7979 6.33583 5.69188C6.33583 4.75538 7.07166 4 7.97433 4C8.87701 4 9.61283 4.7598 9.61283 5.69188C9.61283 5.75814 9.61284 5.82441 9.6 5.88625C9.82674 5.76256 10.0877 5.69188 10.3615 5.69188C11.2684 5.69188 12 6.45168 12 7.38377C12 8.17449 11.4781 8.83711 10.7679 9.02264L10.7765 9.03147Z" stroke="#FF2E71" stroke-width="1.2" stroke-linecap="round" stroke-linejoin="round"/>
</svg>
