<svg width="78" height="60" viewBox="0 0 78 60" fill="none" xmlns="http://www.w3.org/2000/svg">
<g clip-path="url(#clip0_23_104)">
<path d="M22.6359 27.0782C23.9442 22.2413 25.8931 17.5998 28.4311 13.2764C34.5605 22.8432 37.8279 33.9543 37.8501 45.3071C37.8431 48.7339 37.5365 52.1535 36.9339 55.5272C31.1093 55.6959 25.3372 56.6785 19.7863 58.4465L0 22.3771C14.3484 27.5488 25.9114 36.3206 32.5725 47.1163C31.1276 39.6673 27.6948 32.7449 22.6359 27.0782Z" fill="#007934"/>
<path d="M55.3458 27.0782C54.0359 22.2411 52.0854 17.5997 49.546 13.2764C43.4166 22.8432 40.1492 33.9543 40.127 45.3071C40.1295 48.7341 40.4361 52.1541 41.0432 55.5272C46.8678 55.6959 52.6399 56.6785 58.1908 58.4465L78 22.3543C63.6241 27.5625 52.0565 36.3343 45.3817 47.13C46.8313 39.6731 50.2739 32.7451 55.3458 27.0782Z" fill="#007934"/>
<path d="M38.9862 57.003C33.0365 56.9979 27.1179 57.8582 21.4172 59.5569C27.1209 59.8493 33.0077 60.0138 38.9862 60.0138C44.9648 60.0138 50.8974 59.863 56.5965 59.5569C50.8828 57.8534 44.9498 56.993 38.9862 57.003Z" fill="#007934"/>
<path d="M38.9634 32.2683C40.2325 24.3239 43.0813 16.7127 47.3424 9.88198C44.9029 6.30276 42.0912 2.99041 38.9542 0C35.8242 2.99319 33.0174 6.30527 30.5797 9.88198C34.8413 16.712 37.6888 24.3236 38.9542 32.2683H38.9634Z" fill="#007934"/>
<path d="M21.9991 31.2906C19.8492 27.4201 18.5001 23.1587 18.0317 18.7588C15.7592 18.0286 13.416 17.5386 11.0408 17.2969C10.6974 19.6531 10.6007 22.0386 10.7521 24.4148C14.9102 25.9405 18.7214 28.278 21.9624 31.2906H21.9991Z" fill="#007934"/>
<path d="M55.9323 31.2906C58.0759 27.4175 59.4246 23.1574 59.8996 18.7588C62.1691 18.0291 64.5092 17.5391 66.8814 17.2969C67.2247 19.6531 67.3214 22.0386 67.17 24.4148C63.0035 25.9294 59.1827 28.2594 55.9323 31.2678V31.2906Z" fill="#007934"/>
</g>
<defs>
<clipPath id="clip0_23_104">
<rect width="78" height="60" fill="white"/>
</clipPath>
</defs>
</svg>
