<svg width="84" height="89" viewBox="0 0 84 89" fill="none" xmlns="http://www.w3.org/2000/svg">
<path d="M42 85L42 32" stroke="#007935" stroke-width="4" stroke-linecap="round" stroke-linejoin="round"/>
<path d="M42 79.7836C42 81.73 41.7949 83.6286 41.4104 85.4674C20.5069 85.1928 3.46107 70.0161 2 50.8154C4.53765 50.2064 7.17783 49.884 9.92054 49.884C27.6328 49.884 42 63.2696 42 79.7717V79.7836Z" stroke="#007935" stroke-width="4" stroke-linecap="round" stroke-linejoin="round"/>
<path d="M82 50.8037C80.5261 69.999 63.4931 85.1808 42.5896 85.4674C42.2051 83.628 42 81.7168 42 79.7817C42 63.2741 56.3672 49.884 74.0795 49.884C76.8094 49.884 79.4752 50.1945 82 50.8157V50.8037Z" stroke="#007935" stroke-width="4" stroke-linecap="round" stroke-linejoin="round"/>
<path d="M5 51.7568C18.554 61.0305 30.7107 72.1064 41 84.531" stroke="#007935" stroke-width="4" stroke-linecap="round" stroke-linejoin="round"/>
<path d="M56.5557 27.1435C58.099 28.6744 59.0533 30.7852 59.0533 33.1047C59.0533 37.7785 55.2008 41.5709 50.453 41.5709C47.0836 41.5709 44.1854 39.6689 42.7717 36.8971C41.4522 39.9008 38.4126 42 34.8783 42C30.1304 42 26.278 38.2076 26.278 33.5338C26.278 31.423 27.0673 29.4862 28.375 28.0017C24.2045 27.4219 21 23.8846 21 19.6283C21 14.9545 24.8525 11.1621 29.6003 11.1621C30.9669 11.1621 32.2628 11.4752 33.4056 12.0319C33.3114 11.5216 33.2525 10.9997 33.2525 10.4662C33.2525 5.7924 37.1049 2 41.8527 2C46.6006 2 50.453 5.7924 50.453 10.4662C50.453 10.791 50.4412 11.1157 50.3941 11.4404C51.584 10.8142 52.9506 10.4662 54.3997 10.4662C59.1475 10.4662 63 14.2586 63 18.9324C63 22.8756 60.255 26.1925 56.5557 27.1319V27.1435Z" stroke="#007935" stroke-width="4" stroke-linecap="round" stroke-linejoin="round"/>
<path d="M49.6353 25.8366C50.4471 26.6748 50.9529 27.841 50.9529 29.1165C50.9529 31.6919 48.9294 33.7692 46.4471 33.7692C44.6824 33.7692 43.1529 32.7245 42.4118 31.1938C41.7176 32.8459 40.1294 34 38.2706 34C35.7765 34 33.7647 31.9105 33.7647 29.3473C33.7647 28.1811 34.1765 27.1242 34.8706 26.2982C32.6824 25.9823 31 24.0387 31 21.6819C31 19.1066 33.0235 17.0293 35.5059 17.0293C36.2235 17.0293 36.9059 17.1993 37.5059 17.5152C37.4588 17.2358 37.4235 16.9442 37.4235 16.6527C37.4235 14.0773 39.4471 12 41.9294 12C44.4118 12 46.4353 14.0895 46.4353 16.6527C46.4353 16.8349 46.4353 17.0171 46.4 17.1872C47.0235 16.847 47.7412 16.6527 48.4941 16.6527C50.9882 16.6527 53 18.7421 53 21.3054C53 23.4798 51.5647 25.302 49.6118 25.8123L49.6353 25.8366Z" stroke="#007935" stroke-width="4" stroke-linecap="round" stroke-linejoin="round"/>
<path d="M40.6713 85.5203C49.2678 75.6354 69.6344 55.0005 82.3287 51.5399" stroke="#007935" stroke-width="4"/>
</svg>
