<svg width="983" height="787" viewBox="0 0 983 787" fill="none" xmlns="http://www.w3.org/2000/svg">
<g opacity="0.05">
<path d="M285.27 354.907C301.758 291.511 326.319 230.676 358.305 174.01C435.551 299.399 476.728 445.03 477.008 593.827C476.919 638.74 473.056 683.56 465.461 727.778C392.056 729.988 319.313 742.868 249.358 766.041L0 293.291C180.827 361.075 326.55 476.044 410.497 617.539C392.288 519.908 349.026 429.178 285.27 354.907Z" fill="#007935"/>
<path d="M697.499 354.907C680.991 291.508 656.41 230.674 624.407 174.01C547.161 299.399 505.984 445.03 505.703 593.827C505.735 638.743 509.599 683.568 517.25 727.778C590.655 729.988 663.398 742.868 733.353 766.041L983 292.991C801.827 361.254 656.046 476.223 571.925 617.719C590.194 519.983 633.581 429.181 697.499 354.907Z" fill="#007935"/>
<path d="M491.327 747.119C416.345 747.051 341.755 758.328 269.912 780.591C341.793 784.424 415.982 786.579 491.327 786.579C566.671 786.579 641.438 784.603 713.261 780.591C641.254 758.264 566.483 746.987 491.327 747.119Z" fill="#007935"/>
<path d="M491.038 422.93C507.032 318.805 542.935 219.047 596.636 129.52C565.891 82.6082 530.457 39.1943 490.923 0C451.477 39.2308 416.103 82.6411 385.383 129.52C439.09 219.038 474.975 318.802 490.923 422.93H491.038Z" fill="#007935"/>
<path d="M277.245 410.116C250.151 359.387 233.149 303.534 227.246 245.866C198.606 236.296 169.076 229.873 139.142 226.704C134.815 257.587 133.596 288.853 135.505 319.997C187.908 339.993 235.938 370.63 276.783 410.116H277.245Z" fill="#007935"/>
<path d="M704.889 410.116C731.905 359.352 748.902 303.516 754.888 245.866C783.49 236.302 812.981 229.879 842.877 226.704C847.203 257.587 848.422 288.853 846.514 319.997C794.005 339.848 745.854 370.386 704.889 409.817V410.116Z" fill="#007935"/>
</g>
</svg>
