<svg id="Layer_1" data-name="Layer 1" xmlns="http://www.w3.org/2000/svg" viewBox="0 0 170.26 131.33"><defs><style>.cls-1{fill:#007934;}</style></defs><path class="cls-1" d="M61.66,69.34A123.42,123.42,0,0,1,74.31,39.13h0a130.69,130.69,0,0,1,20.56,70.11,129.07,129.07,0,0,1-2,22.37h0A136,136,0,0,0,55.44,138h0L12.25,59.05c31.32,11.32,56.56,30.52,71.1,54.15h0A92.33,92.33,0,0,0,61.66,69.34Z" transform="translate(-12.25 -10.07)"/><path class="cls-1" d="M133.06,69.34A123.45,123.45,0,0,0,120.4,39.13h0a130.69,130.69,0,0,0-20.56,70.11,127.14,127.14,0,0,0,2,22.37h0A136,136,0,0,1,139.27,138h0l43.24-79c-31.38,11.4-56.63,30.6-71.2,54.23h0A92.29,92.29,0,0,1,133.06,69.34Z" transform="translate(-12.25 -10.07)"/><path class="cls-1" d="M97.35,134.84A133.55,133.55,0,0,0,59,140.43c12.45.64,25.3,1,38.35,1s26-.33,38.44-1A133.41,133.41,0,0,0,97.35,134.84Z" transform="translate(-12.25 -10.07)"/><path class="cls-1" d="M97.3,80.7a132.11,132.11,0,0,1,18.29-49h0A134.58,134.58,0,0,0,97.28,10.07,135.48,135.48,0,0,0,79,31.7h0a131.92,131.92,0,0,1,18.28,49Z" transform="translate(-12.25 -10.07)"/><path class="cls-1" d="M60.27,78.56a72.38,72.38,0,0,1-8.66-27.43h0a74.39,74.39,0,0,0-15.26-3.2,75.19,75.19,0,0,0-.63,15.58h0A72.71,72.71,0,0,1,60.19,78.56Z" transform="translate(-12.25 -10.07)"/><path class="cls-1" d="M134.34,78.56A72.92,72.92,0,0,0,143,51.13h0a74.34,74.34,0,0,1,15.24-3.2,75.19,75.19,0,0,1,.63,15.58h0a72.62,72.62,0,0,0-24.53,15Z" transform="translate(-12.25 -10.07)"/></svg>