<svg id="Layer_1" data-name="Layer 1" xmlns="http://www.w3.org/2000/svg" viewBox="0 0 525.49 131.33"><defs><style>.cls-1{fill:#007934;}.cls-2{fill:#7e7f81;}</style></defs><path class="cls-1" d="M61.66,69.34A123.42,123.42,0,0,1,74.31,39.13h0a130.69,130.69,0,0,1,20.56,70.11,129.07,129.07,0,0,1-2,22.37h0A136,136,0,0,0,55.44,138h0L12.25,59.05c31.32,11.32,56.56,30.52,71.1,54.15h0A92.33,92.33,0,0,0,61.66,69.34Z" transform="translate(-12.25 -10.07)"/><path class="cls-1" d="M133.06,69.34A123.45,123.45,0,0,0,120.4,39.13h0a130.69,130.69,0,0,0-20.56,70.11,127.14,127.14,0,0,0,2,22.37h0A136,136,0,0,1,139.27,138h0l43.24-79c-31.38,11.4-56.63,30.6-71.2,54.23h0A92.29,92.29,0,0,1,133.06,69.34Z" transform="translate(-12.25 -10.07)"/><path class="cls-1" d="M97.35,134.84A133.55,133.55,0,0,0,59,140.43c12.45.64,25.3,1,38.35,1s26-.33,38.44-1A133.41,133.41,0,0,0,97.35,134.84Z" transform="translate(-12.25 -10.07)"/><path class="cls-1" d="M97.3,80.7a132.11,132.11,0,0,1,18.29-49h0A134.58,134.58,0,0,0,97.28,10.07,135.48,135.48,0,0,0,79,31.7h0a131.92,131.92,0,0,1,18.28,49Z" transform="translate(-12.25 -10.07)"/><path class="cls-1" d="M60.27,78.56a72.38,72.38,0,0,1-8.66-27.43h0a74.39,74.39,0,0,0-15.26-3.2,75.19,75.19,0,0,0-.63,15.58h0A72.71,72.71,0,0,1,60.19,78.56Z" transform="translate(-12.25 -10.07)"/><path class="cls-1" d="M134.34,78.56A72.92,72.92,0,0,0,143,51.13h0a74.34,74.34,0,0,1,15.24-3.2,75.19,75.19,0,0,1,.63,15.58h0a72.62,72.62,0,0,0-24.53,15Z" transform="translate(-12.25 -10.07)"/><path class="cls-2" d="M225.17,46.42V34.33l-2.06-.6.21-.91h3.53L235,44.67c-.09-1.54-.15-3.07-.17-4.6s0-3.45,0-5.76l-2.23-.58.19-.91h5.58l-.16.92-1.85.6V47.77l-1.57.44-8.36-12.28c.12,1.55.19,3.11.22,4.66s0,3.51,0,5.84l2.24.59-.2.91h-5.62l.19-.93Z" transform="translate(-12.25 -10.07)"/><path class="cls-2" d="M240.55,43.69a2.55,2.55,0,0,1,1.26-.94,6.09,6.09,0,0,1,1.6-.41,15,15,0,0,1,1.82-.13q.45,0,.87,0v-.59a7,7,0,0,0-.22-1.83,1.8,1.8,0,0,0-.88-1.18,1.91,1.91,0,0,0-.6-.2,5.19,5.19,0,0,0-.8-.06,3.61,3.61,0,0,0-.73.07l-.37,2a1.39,1.39,0,0,1-.67.17,1.23,1.23,0,0,1-.58-.17,1.49,1.49,0,0,1-.5-.43,1,1,0,0,1-.19-.58c0-.39.3-.75.91-1.1a8.53,8.53,0,0,1,1.3-.53,12.72,12.72,0,0,1,1.43-.38,5.59,5.59,0,0,1,1-.13,2.54,2.54,0,0,1,2.17.88,3.86,3.86,0,0,1,.67,2.4v5.27a4.51,4.51,0,0,0,.86.68,3.74,3.74,0,0,0,1,.4l-.13.63a8.27,8.27,0,0,1-1.26.46,6.54,6.54,0,0,1-1.23.2,7.27,7.27,0,0,0-.39-.92,4.69,4.69,0,0,0-.54-.8,3.14,3.14,0,0,1-.83.76,5.53,5.53,0,0,1-1.3.68,3.37,3.37,0,0,1-1.28.28,2.74,2.74,0,0,1-1.59-.44,2.67,2.67,0,0,1-.93-1.11,3.31,3.31,0,0,1-.3-1.36A2.88,2.88,0,0,1,240.55,43.69Zm3.14,3.09a4.57,4.57,0,0,0,1.22-.21,6.13,6.13,0,0,0,1.19-.44v-3.2a9.9,9.9,0,0,0-1.86.28,6.09,6.09,0,0,0-1.24.42,1.81,1.81,0,0,0-.61.41,1,1,0,0,0-.21.72,2.31,2.31,0,0,0,.16.78,2.8,2.8,0,0,0,.42.74,1.36,1.36,0,0,0,.56.43A.79.79,0,0,0,243.69,46.78Z" transform="translate(-12.25 -10.07)"/><path class="cls-2" d="M250.89,37.56h1.61l.23-2.39,1.73-.71v3.1h3.46l-.17.95-3.29.57v4.85a5.49,5.49,0,0,0,.26,1.72,1.82,1.82,0,0,0,.77,1.05,1,1,0,0,0,.51.1,5.39,5.39,0,0,0,1.32-.19,8.08,8.08,0,0,1,.79-.2l.21.51a11.26,11.26,0,0,1-1.56.87,3.65,3.65,0,0,1-1.49.42c-1.84,0-2.77-1.24-2.77-3.73v-5.4l-1.81-.55Z" transform="translate(-12.25 -10.07)"/><path class="cls-2" d="M261.16,46.56v-7.1l-1.69-.84.1-.52,3.54-.71v9.17l1.8.48-.19.89H259.4l.16-.91Zm1.2-11.35a3.77,3.77,0,0,1-.83-.09.9.9,0,0,1-.53-.26,1,1,0,0,1-.13-.6,3.69,3.69,0,0,1,.11-.86.91.91,0,0,1,.26-.53,1,1,0,0,1,.58-.12,3.17,3.17,0,0,1,.85.12,1,1,0,0,1,.55.25,1,1,0,0,1,.12.55,3.76,3.76,0,0,1-.11.86,1.14,1.14,0,0,1-.27.57A1,1,0,0,1,262.36,35.21Z" transform="translate(-12.25 -10.07)"/><path class="cls-2" d="M267.13,40.29a5.67,5.67,0,0,1,1.72-2.18,4,4,0,0,1,2.48-.82,5.17,5.17,0,0,1,2.42.55,4,4,0,0,1,1.7,1.68,5.66,5.66,0,0,1,.64,2.82,6.8,6.8,0,0,1-.63,2.89,5.6,5.6,0,0,1-1.71,2.16,3.81,3.81,0,0,1-2.36.82,5.6,5.6,0,0,1-2.5-.54A4,4,0,0,1,267.16,46a5.67,5.67,0,0,1-.64-2.83A6.85,6.85,0,0,1,267.13,40.29Zm5.74,6.33a1.83,1.83,0,0,0,.75-.43,2,2,0,0,0,.42-1,6.64,6.64,0,0,0,.15-1.35,7.14,7.14,0,0,0-.48-2.72,4.26,4.26,0,0,0-1.29-1.78,3,3,0,0,0-1.83-.61,2.77,2.77,0,0,0-1,.14,2,2,0,0,0-.63.43,2.34,2.34,0,0,0-.41,1,6.29,6.29,0,0,0-.16,1.41,7.63,7.63,0,0,0,.39,2.43A4.39,4.39,0,0,0,270,46a2.69,2.69,0,0,0,1.93.75A3,3,0,0,0,272.87,46.62Z" transform="translate(-12.25 -10.07)"/><path class="cls-2" d="M278,38.62l.1-.52,3-.71.39,1.81a11.68,11.68,0,0,1,2.16-1.33,4.88,4.88,0,0,1,2.06-.56,2.6,2.6,0,0,1,1.33.36,2.67,2.67,0,0,1,1,1.24,5.43,5.43,0,0,1,.4,2.27v5.38l1.84.48-.19.89h-4.94l.19-1,1.15-.48V41.93a4.85,4.85,0,0,0-.31-1.85,2.52,2.52,0,0,0-.73-1,.84.84,0,0,0-.43-.14,8.4,8.4,0,0,0-1.55.26c-.75.18-1.38.35-1.89.53,0,0,0,.13,0,.28s0,.25,0,.34v6.25l1.84.49-.19.88H278l.18-1,1.55-.52v-7Z" transform="translate(-12.25 -10.07)"/><path class="cls-2" d="M292,43.69a2.63,2.63,0,0,1,1.27-.94,5.89,5.89,0,0,1,1.6-.41,14.83,14.83,0,0,1,1.82-.13q.45,0,.87,0v-.59a7,7,0,0,0-.22-1.83,1.8,1.8,0,0,0-.88-1.18,2,2,0,0,0-.61-.2,5,5,0,0,0-.79-.06,3.54,3.54,0,0,0-.73.07l-.37,2a1.42,1.42,0,0,1-.67.17,1.2,1.2,0,0,1-.58-.17,1.49,1.49,0,0,1-.5-.43,1,1,0,0,1-.2-.58c0-.39.31-.75.92-1.1a8.39,8.39,0,0,1,1.29-.53,12.86,12.86,0,0,1,1.44-.38,5.59,5.59,0,0,1,1-.13,2.54,2.54,0,0,1,2.17.88,3.86,3.86,0,0,1,.67,2.4v5.27a4.22,4.22,0,0,0,.86.68,3.74,3.74,0,0,0,1,.4l-.13.63a8,8,0,0,1-1.27.46,6.32,6.32,0,0,1-1.22.2,7.27,7.27,0,0,0-.39-.92,4.69,4.69,0,0,0-.54-.8,3.14,3.14,0,0,1-.83.76,6,6,0,0,1-1.3.68,3.45,3.45,0,0,1-1.28.28,2.79,2.79,0,0,1-1.6-.44,2.65,2.65,0,0,1-.92-1.11,3.31,3.31,0,0,1-.3-1.36A2.88,2.88,0,0,1,292,43.69Zm3.15,3.09a4.57,4.57,0,0,0,1.22-.21,6.13,6.13,0,0,0,1.19-.44v-3.2a10.15,10.15,0,0,0-1.87.28,6.19,6.19,0,0,0-1.23.42,1.81,1.81,0,0,0-.61.41,1,1,0,0,0-.21.72,2.09,2.09,0,0,0,.16.78,2.55,2.55,0,0,0,.42.74,1.3,1.3,0,0,0,.56.43A.79.79,0,0,0,295.19,46.78Z" transform="translate(-12.25 -10.07)"/><path class="cls-2" d="M302.44,33l.1-.52,3.54-.65v14.7l1.85.48-.19.89h-5.31l.19-.9,1.5-.47V33.88Z" transform="translate(-12.25 -10.07)"/><path class="cls-2" d="M319.53,47.44a5.87,5.87,0,0,1-2.3-2.5,8.35,8.35,0,0,1-.82-3.83,11.67,11.67,0,0,1,.77-4.3,7,7,0,0,1,2.21-3.07,6,6,0,0,1,1.9-1,7.71,7.71,0,0,1,2.28-.31,8.48,8.48,0,0,1,1.11.07c.38.05.8.13,1.28.22l1.4-.2.41,4-1,.25-1-2.27a8.79,8.79,0,0,0-1.34-.45,7.09,7.09,0,0,0-1.48-.14,4.63,4.63,0,0,0-1.53.25,3.38,3.38,0,0,0-1.14.6,4.58,4.58,0,0,0-1.17,2,11.14,11.14,0,0,0-.46,3.42,9,9,0,0,0,.35,2.46,5.91,5.91,0,0,0,1,2,4.59,4.59,0,0,0,1.65,1.39,4.43,4.43,0,0,0,2,.45,5.37,5.37,0,0,0,1.41-.25c.59-.16,1.17-.35,1.73-.55a11.74,11.74,0,0,0,1.17-.47l.49.76a8.78,8.78,0,0,1-2.47,1.73,7.07,7.07,0,0,1-2.89.54A6.56,6.56,0,0,1,319.53,47.44Z" transform="translate(-12.25 -10.07)"/><path class="cls-2" d="M342.05,47l-.19.89h-4.94l.19-1,1.15-.48V41.93a4.85,4.85,0,0,0-.31-1.85,2.52,2.52,0,0,0-.73-1,.84.84,0,0,0-.43-.14,8.78,8.78,0,0,0-1.51.25c-.72.17-1.34.34-1.86.52v6.89l1.81.48-.2.89h-5.3l.18-.9,1.55-.47V33.88L329.78,33l.1-.52,3.54-.65v7.21a10.71,10.71,0,0,1,2.09-1.25,4.91,4.91,0,0,1,2-.51,2.6,2.6,0,0,1,1.33.36,2.67,2.67,0,0,1,1,1.24,5.43,5.43,0,0,1,.4,2.27v5.38Z" transform="translate(-12.25 -10.07)"/><path class="cls-2" d="M345,46.56v-7.1l-1.69-.84.1-.52,3.54-.71v9.17l1.8.48-.19.89h-5.32l.16-.91Zm1.2-11.35a3.77,3.77,0,0,1-.83-.09.9.9,0,0,1-.53-.26,1.06,1.06,0,0,1-.13-.6,3.69,3.69,0,0,1,.11-.86.91.91,0,0,1,.26-.53,1,1,0,0,1,.58-.12,3.17,3.17,0,0,1,.85.12,1,1,0,0,1,.55.25,1,1,0,0,1,.12.55,3.76,3.76,0,0,1-.11.86,1.14,1.14,0,0,1-.27.57A1,1,0,0,1,346.21,35.21Z" transform="translate(-12.25 -10.07)"/><path class="cls-2" d="M350,33l.1-.52,3.53-.65v14.7l1.86.48-.2.89H350l.18-.9,1.51-.47V33.88Z" transform="translate(-12.25 -10.07)"/><path class="cls-2" d="M367.14,46.51a3.57,3.57,0,0,0,1,.39l-.12.66a6.63,6.63,0,0,1-1.24.42,5.65,5.65,0,0,1-1.26.23,4.77,4.77,0,0,0-.37-.88,4.16,4.16,0,0,0-.55-.8,3.67,3.67,0,0,1-1.37,1.21,3.79,3.79,0,0,1-1.81.47,4.58,4.58,0,0,1-2.12-.52,4.06,4.06,0,0,1-1.62-1.64,5.91,5.91,0,0,1-.62-2.86,7,7,0,0,1,.64-3,5.13,5.13,0,0,1,1.75-2.1,4.19,4.19,0,0,1,2.41-.75,4.32,4.32,0,0,1,1.28.19,3.83,3.83,0,0,1,1.16.58V33.87l-1.7-.84.1-.51,3.55-.66v14A2.36,2.36,0,0,0,367.14,46.51Zm-2.8-.4v-5.3a3.23,3.23,0,0,0-.82-1.15,3.78,3.78,0,0,0-1.2-.75,3.86,3.86,0,0,0-1.32-.25,3,3,0,0,0-.77.09,1,1,0,0,0-.53.37,4.94,4.94,0,0,0-.7,2.94,5.81,5.81,0,0,0,.32,2,5.21,5.21,0,0,0,.81,1.54,3.22,3.22,0,0,0,1,.88l.32.15a1.19,1.19,0,0,0,.29,0A7.3,7.3,0,0,0,364.34,46.11Z" transform="translate(-12.25 -10.07)"/><path class="cls-2" d="M369.51,38.62l.1-.53,3-.64.48,2.17a6.38,6.38,0,0,1,1.35-1.77,2.07,2.07,0,0,1,1.35-.51,2.52,2.52,0,0,1,.58.08,1.8,1.8,0,0,1,.57.23,1.49,1.49,0,0,1,.47.39.89.89,0,0,1,.18.55,1.41,1.41,0,0,1-.21.7,1.89,1.89,0,0,1-.51.61,1,1,0,0,1-.62.24,1.74,1.74,0,0,1-.39,0,2.16,2.16,0,0,1-.36-.12l-.22-1.21a5.22,5.22,0,0,0-1.06.63,12.56,12.56,0,0,0-1.07.87v6.31l2.81.5-.19.86h-6.35l.18-1,1.6-.53v-7Z" transform="translate(-12.25 -10.07)"/><path class="cls-2" d="M385.34,46.49a7.77,7.77,0,0,0,1.09-.33,6,6,0,0,0,.72-.31l.27.38a6.32,6.32,0,0,1-1,.89,6.56,6.56,0,0,1-1.38.77,4,4,0,0,1-1.51.32,4.69,4.69,0,0,1-2.26-.54,3.8,3.8,0,0,1-1.61-1.7,6.5,6.5,0,0,1-.6-3,6.69,6.69,0,0,1,.62-2.89A5,5,0,0,1,381.46,38a4.53,4.53,0,0,1,2.57-.75,3.56,3.56,0,0,1,1.86.46A3.07,3.07,0,0,1,387.08,39a3.77,3.77,0,0,1,.41,1.76,4.68,4.68,0,0,1-.23,1.46.71.71,0,0,1-.15.29.42.42,0,0,1-.29.08H381a5.57,5.57,0,0,0,.51,2,4.11,4.11,0,0,0,1.15,1.49,2.59,2.59,0,0,0,1.64.56A4.46,4.46,0,0,0,385.34,46.49Zm-3.48-7.65a2.91,2.91,0,0,0-.58,1.09,6.88,6.88,0,0,0-.33,1.86l4.73-.38a3,3,0,0,0-.37-1.55,2.45,2.45,0,0,0-1-1,2.86,2.86,0,0,0-1.37-.33A1.56,1.56,0,0,0,381.86,38.84Z" transform="translate(-12.25 -10.07)"/><path class="cls-2" d="M389.48,38.62l.1-.52,3-.71L393,39.2a11.68,11.68,0,0,1,2.16-1.33,4.88,4.88,0,0,1,2.06-.56,2.6,2.6,0,0,1,1.33.36,2.67,2.67,0,0,1,1,1.24,5.43,5.43,0,0,1,.4,2.27v5.38l1.84.48-.19.89h-4.94l.19-1L398,46.5V41.93a4.67,4.67,0,0,0-.31-1.85,2.52,2.52,0,0,0-.73-1,.84.84,0,0,0-.43-.14,8.4,8.4,0,0,0-1.55.26c-.75.18-1.38.35-1.89.53,0,0,0,.13,0,.28s0,.25,0,.34v6.25l1.84.49-.19.88h-5.34l.18-1,1.55-.52v-7Z" transform="translate(-12.25 -10.07)"/><path class="cls-2" d="M403.56,35.39a.87.87,0,0,1-.39-.3,1.27,1.27,0,0,1-.1-.6,2.88,2.88,0,0,1,.1-.78,1,1,0,0,1,.28-.51,1,1,0,0,1,.63-.13,3.85,3.85,0,0,1,1,.13,1.14,1.14,0,0,1,.63.3,1.48,1.48,0,0,1,.22.88,4.65,4.65,0,0,1-.23,1.34,5.85,5.85,0,0,1-.7,1.45,4.77,4.77,0,0,1-1.13,1.24l-.83-.19,1.22-2.62A3.48,3.48,0,0,1,403.56,35.39Z" transform="translate(-12.25 -10.07)"/><path class="cls-2" d="M411.21,38.54a4.19,4.19,0,0,0-1.22.57.87.87,0,0,0-.33.76,1.64,1.64,0,0,0,1.09,1.42,3,3,0,0,0,.58.26l.85.27c.43.13.77.24,1,.34a4,4,0,0,1,.77.39,2.42,2.42,0,0,1,.84.9,2.82,2.82,0,0,1,.31,1.34,3.33,3.33,0,0,1-.52,1.88,3.13,3.13,0,0,1-1.4,1.16,5,5,0,0,1-2,.38,6.68,6.68,0,0,1-1.59-.17,4.54,4.54,0,0,1-1.12-.41,7.64,7.64,0,0,1-.93-.63l.49-2.4,1.15.27.4,2.1a12.07,12.07,0,0,0,1.9-.15,4,4,0,0,0,1.48-.5,1,1,0,0,0,.39-.88,1.6,1.6,0,0,0-.18-.75,1.79,1.79,0,0,0-.61-.62,3.13,3.13,0,0,0-.63-.33c-.23-.09-.53-.2-.89-.31a2.71,2.71,0,0,1-.39-.13l-.58-.21a4.12,4.12,0,0,1-.47-.22,3.12,3.12,0,0,1-1.15-1.07,2.78,2.78,0,0,1-.43-1.55,2.49,2.49,0,0,1,.56-1.66,3.29,3.29,0,0,1,1.48-1,6,6,0,0,1,2-.31,4.12,4.12,0,0,1,2.07.48,1.26,1.26,0,0,1,.76,1,1.17,1.17,0,0,1-.2.63,1.64,1.64,0,0,1-.49.49,1.18,1.18,0,0,1-.59.18A1.54,1.54,0,0,1,413,40l-.32-1.7A6.31,6.31,0,0,0,411.21,38.54Z" transform="translate(-12.25 -10.07)"/><path class="cls-2" d="M423.82,47l1.91-.59V34.33l-2.05-.62.19-.89h3.9a21.9,21.9,0,0,1,3.57.24,4.54,4.54,0,0,1,2.29,1,2.9,2.9,0,0,1,.86,2.27A2.78,2.78,0,0,1,434,38a3.79,3.79,0,0,1-1.3,1.15,6.38,6.38,0,0,1-1.72.6,6.72,6.72,0,0,1,2.11.61,4.11,4.11,0,0,1,1.55,1.26,3.22,3.22,0,0,1,.58,1.9,3.9,3.9,0,0,1-.93,2.82,4.59,4.59,0,0,1-2.48,1.26,21.21,21.21,0,0,1-3.93.3h-4.22Zm7.26-12.54a9.62,9.62,0,0,0-3.25-.79V47.05a16.33,16.33,0,0,0,2.52-.49,4.32,4.32,0,0,0,1.84-1,2.8,2.8,0,0,0-.3-4.11,8.37,8.37,0,0,0-3-1.25l.11-.64a5.27,5.27,0,0,0,2.48-1.17,2.51,2.51,0,0,0,.88-1.91A2.07,2.07,0,0,0,431.08,34.47Z" transform="translate(-12.25 -10.07)"/><path class="cls-2" d="M438.08,40.29a5.56,5.56,0,0,1,1.71-2.18,4,4,0,0,1,2.49-.82,5.15,5.15,0,0,1,2.41.55,4,4,0,0,1,1.7,1.68,5.66,5.66,0,0,1,.64,2.82,6.8,6.8,0,0,1-.63,2.89,5.6,5.6,0,0,1-1.71,2.16,3.81,3.81,0,0,1-2.36.82,5.56,5.56,0,0,1-2.49-.54A4,4,0,0,1,438.1,46a5.67,5.67,0,0,1-.64-2.83A6.86,6.86,0,0,1,438.08,40.29Zm5.74,6.33a1.86,1.86,0,0,0,.74-.43,2,2,0,0,0,.43-1,7.37,7.37,0,0,0,.14-1.35,7.14,7.14,0,0,0-.48-2.72,4.18,4.18,0,0,0-1.29-1.78,3,3,0,0,0-1.83-.61,2.81,2.81,0,0,0-1,.14,2,2,0,0,0-.63.43,2.34,2.34,0,0,0-.41,1,6.93,6.93,0,0,0-.16,1.41,7.63,7.63,0,0,0,.39,2.43,4.49,4.49,0,0,0,1.18,1.9,2.71,2.71,0,0,0,1.94.75A3.09,3.09,0,0,0,443.82,46.62Z" transform="translate(-12.25 -10.07)"/><path class="cls-2" d="M448.68,37.56h1.61l.23-2.39,1.73-.71v3.1h3.46l-.17.95-3.29.57v4.85a5.49,5.49,0,0,0,.26,1.72,1.82,1.82,0,0,0,.77,1.05,1,1,0,0,0,.51.1,5.39,5.39,0,0,0,1.32-.19,8.08,8.08,0,0,1,.79-.2l.2.51a10.57,10.57,0,0,1-1.55.87,3.69,3.69,0,0,1-1.49.42q-2.78,0-2.77-3.73v-5.4l-1.81-.55Z" transform="translate(-12.25 -10.07)"/><path class="cls-2" d="M457.71,43.69a2.63,2.63,0,0,1,1.27-.94,5.89,5.89,0,0,1,1.6-.41,14.83,14.83,0,0,1,1.82-.13c.29,0,.59,0,.87,0v-.59a7.4,7.4,0,0,0-.22-1.83,1.84,1.84,0,0,0-.88-1.18,2.08,2.08,0,0,0-.61-.2,5.06,5.06,0,0,0-.79-.06,3.54,3.54,0,0,0-.73.07l-.37,2a1.42,1.42,0,0,1-.67.17,1.2,1.2,0,0,1-.58-.17,1.4,1.4,0,0,1-.5-.43,1,1,0,0,1-.2-.58c0-.39.31-.75.92-1.1a8,8,0,0,1,1.29-.53,13.31,13.31,0,0,1,1.43-.38,5.79,5.79,0,0,1,1-.13,2.56,2.56,0,0,1,2.18.88,3.93,3.93,0,0,1,.66,2.4v5.27a4.27,4.27,0,0,0,.87.68,3.56,3.56,0,0,0,1,.4l-.13.63a7.9,7.9,0,0,1-1.26.46,6.29,6.29,0,0,1-1.23.2,5.19,5.19,0,0,0-.39-.92,4.69,4.69,0,0,0-.54-.8,3,3,0,0,1-.83.76,5.66,5.66,0,0,1-1.29.68,3.45,3.45,0,0,1-1.28.28,2.61,2.61,0,0,1-2.53-1.55,3.46,3.46,0,0,1-.29-1.36A2.88,2.88,0,0,1,457.71,43.69Zm3.15,3.09a4.51,4.51,0,0,0,1.21-.21,6,6,0,0,0,1.2-.44v-3.2a10.15,10.15,0,0,0-1.87.28,6.19,6.19,0,0,0-1.23.42,1.81,1.81,0,0,0-.61.41,1,1,0,0,0-.21.72,2.09,2.09,0,0,0,.16.78,2.34,2.34,0,0,0,.42.74,1.34,1.34,0,0,0,.55.43A.83.83,0,0,0,460.86,46.78Z" transform="translate(-12.25 -10.07)"/><path class="cls-2" d="M468.35,38.62l.1-.52,3-.71.39,1.81A11.68,11.68,0,0,1,474,37.87a4.88,4.88,0,0,1,2.06-.56,2.63,2.63,0,0,1,1.33.36,2.67,2.67,0,0,1,1,1.24,5.43,5.43,0,0,1,.4,2.27v5.38l1.83.48-.18.89H475.5l.19-1,1.14-.48V41.93a4.87,4.87,0,0,0-.3-1.85,2.62,2.62,0,0,0-.73-1,.84.84,0,0,0-.43-.14,8.4,8.4,0,0,0-1.55.26c-.75.18-1.38.35-1.89.53a2.07,2.07,0,0,1,0,.28,2.47,2.47,0,0,1,0,.34v6.25l1.84.49-.2.88h-5.34l.19-1,1.55-.52v-7Z" transform="translate(-12.25 -10.07)"/><path class="cls-2" d="M483.6,46.56v-7.1l-1.69-.84.1-.52,3.54-.71v9.17l1.8.48-.19.89h-5.32L482,47Zm1.2-11.35a3.77,3.77,0,0,1-.83-.09.9.9,0,0,1-.53-.26,1.06,1.06,0,0,1-.13-.6,3.69,3.69,0,0,1,.11-.86.91.91,0,0,1,.26-.53,1,1,0,0,1,.58-.12,3.17,3.17,0,0,1,.85.12,1,1,0,0,1,.55.25,1,1,0,0,1,.12.55,3.76,3.76,0,0,1-.11.86,1.14,1.14,0,0,1-.27.57A1,1,0,0,1,484.8,35.21Z" transform="translate(-12.25 -10.07)"/><path class="cls-2" d="M493.27,38.49a3.2,3.2,0,0,0-1.2.77,3.64,3.64,0,0,0-.82,1.33,4.73,4.73,0,0,0-.26,1.56,5.35,5.35,0,0,0,.92,3.15,3.22,3.22,0,0,0,1,1,2.71,2.71,0,0,0,1.39.38,4,4,0,0,0,1-.14,8,8,0,0,0,1-.32,4,4,0,0,0,.65-.29l.26.38a6.47,6.47,0,0,1-1.56,1.32,3.8,3.8,0,0,1-2,.6,4.55,4.55,0,0,1-2.56-.69,4.28,4.28,0,0,1-1.58-1.86,7,7,0,0,1,.21-5.78,4.69,4.69,0,0,1,2-1.92,6.09,6.09,0,0,1,2.79-.63,4.72,4.72,0,0,1,1.73.27,1.46,1.46,0,0,1,.56.41.88.88,0,0,1,.23.6,1.2,1.2,0,0,1-.2.63,1.77,1.77,0,0,1-.5.52,1.12,1.12,0,0,1-.59.2,1.41,1.41,0,0,1-.69-.17l-.32-1.54A4.11,4.11,0,0,0,493.27,38.49Z" transform="translate(-12.25 -10.07)"/><path class="cls-2" d="M499.28,43.69a2.63,2.63,0,0,1,1.27-.94,5.89,5.89,0,0,1,1.6-.41,14.83,14.83,0,0,1,1.82-.13c.29,0,.59,0,.87,0v-.59a7,7,0,0,0-.22-1.83,1.84,1.84,0,0,0-.88-1.18,2.08,2.08,0,0,0-.61-.2,5,5,0,0,0-.79-.06,3.54,3.54,0,0,0-.73.07l-.37,2a1.42,1.42,0,0,1-.67.17,1.2,1.2,0,0,1-.58-.17,1.49,1.49,0,0,1-.5-.43,1,1,0,0,1-.2-.58c0-.39.31-.75.92-1.1a8.39,8.39,0,0,1,1.29-.53,12.86,12.86,0,0,1,1.44-.38,5.59,5.59,0,0,1,1-.13,2.55,2.55,0,0,1,2.17.88,3.93,3.93,0,0,1,.67,2.4v5.27a4.22,4.22,0,0,0,.86.68,3.68,3.68,0,0,0,1,.4l-.13.63a7.56,7.56,0,0,1-1.26.46,6.29,6.29,0,0,1-1.23.2,6.07,6.07,0,0,0-.38-.92,6.25,6.25,0,0,0-.54-.8,3.31,3.31,0,0,1-.83.76,6,6,0,0,1-1.3.68,3.45,3.45,0,0,1-1.28.28,2.79,2.79,0,0,1-1.6-.44,2.75,2.75,0,0,1-.93-1.11,3.46,3.46,0,0,1-.29-1.36A2.88,2.88,0,0,1,499.28,43.69Zm3.15,3.09a4.51,4.51,0,0,0,1.21-.21,6,6,0,0,0,1.2-.44v-3.2a10.15,10.15,0,0,0-1.87.28,6.19,6.19,0,0,0-1.23.42,1.81,1.81,0,0,0-.61.41,1,1,0,0,0-.21.72,2.09,2.09,0,0,0,.16.78,2.34,2.34,0,0,0,.42.74,1.3,1.3,0,0,0,.56.43A.76.76,0,0,0,502.43,46.78Z" transform="translate(-12.25 -10.07)"/><path class="cls-2" d="M509.68,33l.1-.52,3.54-.65v14.7l1.85.48-.19.89h-5.31l.18-.9,1.51-.47V33.88Z" transform="translate(-12.25 -10.07)"/><path class="cls-2" d="M230.75,64l.18-.92h6.3l-.17,1-1.32.67V68a5.38,5.38,0,0,1-2.18,2,6.81,6.81,0,0,1-3.12.71,12.09,12.09,0,0,1-2-.13,5.06,5.06,0,0,1-1.55-.52,7.83,7.83,0,0,1-1.58-1.13,5.88,5.88,0,0,1-1.53-2.41,9.47,9.47,0,0,1-.54-3.2,11.4,11.4,0,0,1,.66-3.84,7.43,7.43,0,0,1,2.3-3.23,5.65,5.65,0,0,1,2-1,8.83,8.83,0,0,1,2.52-.37,13.6,13.6,0,0,1,1.4.08,10.11,10.11,0,0,1,1.3.21l1.44-.15.44,4-1.06.23-1-2.23a4.43,4.43,0,0,0-1.33-.45,8,8,0,0,0-1.62-.18,7.17,7.17,0,0,0-1.85.22,2.74,2.74,0,0,0-1.26.6,5,5,0,0,0-1.24,2.1,11.81,11.81,0,0,0-.45,3.64,8.64,8.64,0,0,0,.43,2.69,4.61,4.61,0,0,0,1.35,2.13,4.9,4.9,0,0,0,1.72,1A6.25,6.25,0,0,0,231,69a7,7,0,0,0,1.5-.18,3.19,3.19,0,0,0,1.24-.51v-3.7Z" transform="translate(-12.25 -10.07)"/><path class="cls-2" d="M239.18,66.05a2.68,2.68,0,0,1,1.27-.93,5.89,5.89,0,0,1,1.6-.41,13.09,13.09,0,0,1,1.82-.13c.29,0,.59,0,.87,0V64a7.4,7.4,0,0,0-.22-1.83,1.84,1.84,0,0,0-.88-1.18,2.08,2.08,0,0,0-.61-.2,5.06,5.06,0,0,0-.79-.06,3.54,3.54,0,0,0-.73.07l-.37,2a1.41,1.41,0,0,1-.67.16,1.18,1.18,0,0,1-.58-.16,1.33,1.33,0,0,1-.5-.44,1,1,0,0,1-.2-.58c0-.38.31-.75.92-1.09a8,8,0,0,1,1.29-.53,13.31,13.31,0,0,1,1.43-.38,6.05,6.05,0,0,1,1-.14,2.56,2.56,0,0,1,2.18.89,3.93,3.93,0,0,1,.66,2.4v5.27a4.27,4.27,0,0,0,.87.68,3.56,3.56,0,0,0,1,.4l-.13.63a7,7,0,0,1-1.26.45,6.34,6.34,0,0,1-1.23.21,4.89,4.89,0,0,0-.39-.92,4.33,4.33,0,0,0-.54-.8,3.15,3.15,0,0,1-.83.76,6.08,6.08,0,0,1-1.29.68,3.66,3.66,0,0,1-1.28.28,2.7,2.7,0,0,1-1.6-.45,2.66,2.66,0,0,1-.93-1.1,3.46,3.46,0,0,1-.29-1.36A2.94,2.94,0,0,1,239.18,66.05Zm3.15,3.1a4.51,4.51,0,0,0,1.21-.21,6,6,0,0,0,1.2-.44V65.3a11.16,11.16,0,0,0-1.87.27,6.91,6.91,0,0,0-1.23.42,2.17,2.17,0,0,0-.61.41,1,1,0,0,0-.21.72,2.14,2.14,0,0,0,.16.79,2.45,2.45,0,0,0,.42.74,1.34,1.34,0,0,0,.55.43A1,1,0,0,0,242.33,69.15Z" transform="translate(-12.25 -10.07)"/><path class="cls-2" d="M249.84,61l.1-.53,3-.64.48,2.17a6.78,6.78,0,0,1,1.35-1.77,2.09,2.09,0,0,1,1.36-.51,2,2,0,0,1,.57.08,2.25,2.25,0,0,1,.58.22,1.5,1.5,0,0,1,.46.4.88.88,0,0,1,.18.54,1.53,1.53,0,0,1-.2.71,2.14,2.14,0,0,1-.51.6,1,1,0,0,1-.62.24,1.87,1.87,0,0,1-.4,0l-.35-.12-.22-1.21a5.26,5.26,0,0,0-1.07.63,12.68,12.68,0,0,0-1.06.86v6.32l2.8.5-.18.86h-6.36l.19-1,1.59-.53v-7Z" transform="translate(-12.25 -10.07)"/><path class="cls-2" d="M269.45,68.88a4,4,0,0,0,1,.39l-.12.66a7.14,7.14,0,0,1-1.24.42,5.65,5.65,0,0,1-1.26.23,4.77,4.77,0,0,0-.37-.88,4.59,4.59,0,0,0-.55-.81,3.61,3.61,0,0,1-1.37,1.22,3.75,3.75,0,0,1-1.8.47,4.59,4.59,0,0,1-2.13-.52A4,4,0,0,1,260,68.41a5.9,5.9,0,0,1-.62-2.85,7,7,0,0,1,.64-3.05,5.13,5.13,0,0,1,1.75-2.1,4.2,4.2,0,0,1,2.41-.76,4.45,4.45,0,0,1,1.29.2,3.66,3.66,0,0,1,1.15.58V56.24L265,55.39l.09-.5,3.55-.66v14A2.36,2.36,0,0,0,269.45,68.88Zm-2.8-.4v-5.3a3.36,3.36,0,0,0-.82-1.16,3.94,3.94,0,0,0-1.2-.74,3.63,3.63,0,0,0-1.32-.25,3,3,0,0,0-.77.09,1,1,0,0,0-.53.37,4.94,4.94,0,0,0-.7,2.94,6.06,6.06,0,0,0,.32,2,5,5,0,0,0,.81,1.53,3.18,3.18,0,0,0,1,.89l.31.15a1.19,1.19,0,0,0,.29,0A7.3,7.3,0,0,0,266.65,68.48Z" transform="translate(-12.25 -10.07)"/><path class="cls-2" d="M278.19,68.86a7.92,7.92,0,0,0,1.1-.33c.33-.13.57-.23.72-.31l.26.38a5.84,5.84,0,0,1-1,.88,6.17,6.17,0,0,1-1.38.78,3.94,3.94,0,0,1-1.51.32,4.69,4.69,0,0,1-2.26-.54,3.84,3.84,0,0,1-1.6-1.7,7.36,7.36,0,0,1,0-5.87,5,5,0,0,1,1.75-2.06,4.56,4.56,0,0,1,2.57-.76,3.57,3.57,0,0,1,1.86.47,3.13,3.13,0,0,1,1.2,1.25,3.85,3.85,0,0,1,.41,1.77,5,5,0,0,1-.23,1.46.85.85,0,0,1-.16.29.46.46,0,0,1-.29.08H273.8a5.46,5.46,0,0,0,.51,2,4,4,0,0,0,1.16,1.5,2.62,2.62,0,0,0,1.63.56A4.46,4.46,0,0,0,278.19,68.86Zm-3.48-7.66a3.22,3.22,0,0,0-.58,1.1,6.88,6.88,0,0,0-.33,1.85l4.73-.37a3.14,3.14,0,0,0-.36-1.55,2.47,2.47,0,0,0-1-1,2.83,2.83,0,0,0-1.37-.33A1.62,1.62,0,0,0,274.71,61.2Z" transform="translate(-12.25 -10.07)"/><path class="cls-2" d="M282.33,61l.1-.52,3-.71.4,1.81A10.59,10.59,0,0,1,288,60.24a4.81,4.81,0,0,1,2-.56,2.58,2.58,0,0,1,1.33.36,2.75,2.75,0,0,1,1,1.24,5.55,5.55,0,0,1,.39,2.27v5.38l1.84.48-.19.89h-4.93l.18-1,1.15-.48V64.3a4.67,4.67,0,0,0-.31-1.85,2.37,2.37,0,0,0-.73-1,.81.81,0,0,0-.42-.14,8.47,8.47,0,0,0-1.56.26,19.39,19.39,0,0,0-1.88.53s0,.13,0,.28,0,.25,0,.34v6.25l1.85.49-.2.88h-5.34l.18-1,1.56-.52v-7Z" transform="translate(-12.25 -10.07)"/><path class="cls-2" d="M303.52,59.17A7.37,7.37,0,0,1,306,56a6.32,6.32,0,0,1,3.87-1.2,5.92,5.92,0,0,1,3.14.87,6.29,6.29,0,0,1,2.28,2.5,8.23,8.23,0,0,1,.84,3.81,11.1,11.1,0,0,1-.84,4.35,7.53,7.53,0,0,1-2.45,3.18,6.55,6.55,0,0,1-7,.31,6,6,0,0,1-2.28-2.5,8.21,8.21,0,0,1-.84-3.82A11.14,11.14,0,0,1,303.52,59.17Zm4.38,9.3A4.7,4.7,0,0,0,310,69a4.45,4.45,0,0,0,1.45-.24,2.76,2.76,0,0,0,1.17-.74,4.38,4.38,0,0,0,.9-2,10.47,10.47,0,0,0,.31-2.45,20.73,20.73,0,0,0-.11-2.29,6.69,6.69,0,0,0-.44-1.71,5,5,0,0,0-1.08-1.6,5.13,5.13,0,0,0-1.58-1.07,4.59,4.59,0,0,0-1.81-.38,4.7,4.7,0,0,0-1.43.23,2.77,2.77,0,0,0-1.9,1.91,8.68,8.68,0,0,0-.42,1.67,10.85,10.85,0,0,0-.14,1.61,14.75,14.75,0,0,0,.27,3,5.41,5.41,0,0,0,1,2.25A4.71,4.71,0,0,0,307.9,68.47Z" transform="translate(-12.25 -10.07)"/><path class="cls-2" d="M320,68.82V61.45l-1.8-.56.18-1H320a10.47,10.47,0,0,1,.42-3.27,3.38,3.38,0,0,1,1.35-1.84,4.6,4.6,0,0,1,2.5-.59,4.37,4.37,0,0,1,1.8.3,1.44,1.44,0,0,1,.51.39.84.84,0,0,1,.21.57,1.14,1.14,0,0,1-.2.64,1.69,1.69,0,0,1-.5.53,1.1,1.1,0,0,1-.59.2,1.51,1.51,0,0,1-.7-.19l-.35-1.78a2.36,2.36,0,0,0-1.62.87,4,4,0,0,0-.72,1.73,15.26,15.26,0,0,0-.17,2.44h3.41l-.15.88-3.26.61v7.51l2.78.51-.19.86h-6.31l.18-1Z" transform="translate(-12.25 -10.07)"/><path class="cls-2" d="M336.71,69.81a5.87,5.87,0,0,1-2.3-2.5,8.35,8.35,0,0,1-.82-3.83,11.67,11.67,0,0,1,.77-4.3,7,7,0,0,1,2.21-3.08,5.93,5.93,0,0,1,1.9-1,7.71,7.71,0,0,1,2.28-.32,8.53,8.53,0,0,1,1.11.08c.38,0,.81.13,1.28.22l1.4-.2.41,4-1.05.25-1-2.27a8.79,8.79,0,0,0-1.34-.45,7.09,7.09,0,0,0-1.48-.14,4.63,4.63,0,0,0-1.53.25,3.38,3.38,0,0,0-1.14.6,4.59,4.59,0,0,0-1.17,2,11.28,11.28,0,0,0-.45,3.43,8.84,8.84,0,0,0,.34,2.45,5.87,5.87,0,0,0,1,2,4.59,4.59,0,0,0,1.65,1.39,4.43,4.43,0,0,0,2,.45,5.82,5.82,0,0,0,1.41-.25c.59-.16,1.17-.35,1.73-.55a11.74,11.74,0,0,0,1.17-.47l.49.75A8.58,8.58,0,0,1,343,70.14a6.89,6.89,0,0,1-2.88.54A6.66,6.66,0,0,1,336.71,69.81Z" transform="translate(-12.25 -10.07)"/><path class="cls-2" d="M347.59,66.05a2.68,2.68,0,0,1,1.27-.93,6,6,0,0,1,1.6-.41,13.09,13.09,0,0,1,1.82-.13q.45,0,.87,0V64a7,7,0,0,0-.22-1.83,1.8,1.8,0,0,0-.88-1.18,2,2,0,0,0-.61-.2,5,5,0,0,0-.79-.06,3.54,3.54,0,0,0-.73.07l-.37,2a1.41,1.41,0,0,1-.67.16,1.18,1.18,0,0,1-.58-.16,1.41,1.41,0,0,1-.5-.44,1,1,0,0,1-.2-.58c0-.38.31-.75.92-1.09a8.53,8.53,0,0,1,1.3-.53,12.72,12.72,0,0,1,1.43-.38,5.81,5.81,0,0,1,1-.14,2.54,2.54,0,0,1,2.17.89,3.86,3.86,0,0,1,.67,2.4v5.27a4.51,4.51,0,0,0,.86.68,3.74,3.74,0,0,0,1,.4l-.13.63a7.1,7.1,0,0,1-1.27.45,6.37,6.37,0,0,1-1.22.21,6.7,6.7,0,0,0-.39-.92,4.33,4.33,0,0,0-.54-.8,3.32,3.32,0,0,1-.83.76,6.42,6.42,0,0,1-1.3.68,3.62,3.62,0,0,1-1.28.28,2.67,2.67,0,0,1-1.59-.45,2.52,2.52,0,0,1-.93-1.1,3.31,3.31,0,0,1-.3-1.36A3,3,0,0,1,347.59,66.05Zm3.15,3.1a4.57,4.57,0,0,0,1.22-.21,6.13,6.13,0,0,0,1.19-.44V65.3a10.87,10.87,0,0,0-1.86.27,6.77,6.77,0,0,0-1.24.42,2.17,2.17,0,0,0-.61.41,1,1,0,0,0-.21.72,2.36,2.36,0,0,0,.16.79,3,3,0,0,0,.42.74,1.36,1.36,0,0,0,.56.43A.94.94,0,0,0,350.74,69.15Z" transform="translate(-12.25 -10.07)"/><path class="cls-2" d="M358.23,61l.1-.52,3-.71.4,1.81a10.8,10.8,0,0,1,2.15-1.33,4.88,4.88,0,0,1,2.06-.56,2.6,2.6,0,0,1,1.33.36,2.67,2.67,0,0,1,1,1.24,5.37,5.37,0,0,1,.4,2.27v5.38l1.84.48-.19.89h-4.93l.18-1,1.15-.48V64.3a4.67,4.67,0,0,0-.31-1.85,2.46,2.46,0,0,0-.73-1,.81.81,0,0,0-.43-.14,8.54,8.54,0,0,0-1.55.26c-.75.18-1.38.35-1.89.53,0,0,0,.13,0,.28s0,.25,0,.34v6.25l1.84.49-.19.88h-5.34l.18-1,1.55-.52v-7Z" transform="translate(-12.25 -10.07)"/><path class="cls-2" d="M372.25,66.05a2.6,2.6,0,0,1,1.26-.93,6,6,0,0,1,1.6-.41,13.2,13.2,0,0,1,1.82-.13q.45,0,.87,0V64a7,7,0,0,0-.22-1.83A1.8,1.8,0,0,0,376.7,61a1.91,1.91,0,0,0-.6-.2,5.19,5.19,0,0,0-.8-.06,3.61,3.61,0,0,0-.73.07l-.37,2a1.38,1.38,0,0,1-.67.16,1.21,1.21,0,0,1-.58-.16,1.41,1.41,0,0,1-.5-.44,1,1,0,0,1-.19-.58c0-.38.3-.75.91-1.09a8.53,8.53,0,0,1,1.3-.53,12.72,12.72,0,0,1,1.43-.38,5.81,5.81,0,0,1,1-.14,2.54,2.54,0,0,1,2.17.89,3.86,3.86,0,0,1,.67,2.4v5.27a4.51,4.51,0,0,0,.86.68,3.74,3.74,0,0,0,1,.4l-.13.63a7.29,7.29,0,0,1-1.26.45,6.6,6.6,0,0,1-1.23.21,6.7,6.7,0,0,0-.39-.92,4.33,4.33,0,0,0-.54-.8,3.32,3.32,0,0,1-.83.76,5.93,5.93,0,0,1-1.3.68,3.57,3.57,0,0,1-1.28.28,2.67,2.67,0,0,1-1.59-.45,2.59,2.59,0,0,1-.93-1.1,3.31,3.31,0,0,1-.3-1.36A2.94,2.94,0,0,1,372.25,66.05Zm3.14,3.1a4.57,4.57,0,0,0,1.22-.21,6.13,6.13,0,0,0,1.19-.44V65.3a10.87,10.87,0,0,0-1.86.27,6.77,6.77,0,0,0-1.24.42,2.17,2.17,0,0,0-.61.41,1,1,0,0,0-.21.72,2.36,2.36,0,0,0,.16.79,3,3,0,0,0,.42.74,1.36,1.36,0,0,0,.56.43A.94.94,0,0,0,375.39,69.15Z" transform="translate(-12.25 -10.07)"/><path class="cls-2" d="M393.06,68.88a3.77,3.77,0,0,0,1,.39l-.12.66a7.46,7.46,0,0,1-1.24.42,5.65,5.65,0,0,1-1.26.23,5.58,5.58,0,0,0-.37-.88,4.59,4.59,0,0,0-.55-.81,3.61,3.61,0,0,1-1.37,1.22,3.79,3.79,0,0,1-1.81.47,4.58,4.58,0,0,1-2.12-.52,4,4,0,0,1-1.62-1.65,5.78,5.78,0,0,1-.63-2.85,7,7,0,0,1,.65-3.05,5.13,5.13,0,0,1,1.75-2.1,4.2,4.2,0,0,1,2.41-.76,4.33,4.33,0,0,1,1.28.2,3.72,3.72,0,0,1,1.16.58V56.24l-1.7-.85.1-.5,3.55-.66v14A2.36,2.36,0,0,0,393.06,68.88Zm-2.8-.4v-5.3a3.5,3.5,0,0,0-.82-1.16,3.94,3.94,0,0,0-1.2-.74,3.65,3.65,0,0,0-1.33-.25,3,3,0,0,0-.76.09,1,1,0,0,0-.54.37,5,5,0,0,0-.7,2.94,5.81,5.81,0,0,0,.33,2A5.25,5.25,0,0,0,386,68a3.29,3.29,0,0,0,1,.89l.32.15a1.11,1.11,0,0,0,.28,0A7.35,7.35,0,0,0,390.26,68.48Z" transform="translate(-12.25 -10.07)"/><path class="cls-2" d="M395.85,66.05a2.7,2.7,0,0,1,1.26-.93,6.07,6.07,0,0,1,1.61-.41,13.06,13.06,0,0,1,1.81-.13c.3,0,.59,0,.88,0V64a6.94,6.94,0,0,0-.23-1.83A1.8,1.8,0,0,0,400.3,61a1.91,1.91,0,0,0-.6-.2,5.06,5.06,0,0,0-.79-.06,3.64,3.64,0,0,0-.74.07l-.37,2a1.34,1.34,0,0,1-.66.16,1.22,1.22,0,0,1-.59-.16,1.38,1.38,0,0,1-.49-.44.91.91,0,0,1-.2-.58c0-.38.3-.75.92-1.09a8,8,0,0,1,1.29-.53,13.31,13.31,0,0,1,1.43-.38,6.05,6.05,0,0,1,1-.14,2.56,2.56,0,0,1,2.18.89,3.93,3.93,0,0,1,.66,2.4v5.27a4.51,4.51,0,0,0,.86.68,3.74,3.74,0,0,0,1,.4l-.13.63a7.29,7.29,0,0,1-1.26.45,6.34,6.34,0,0,1-1.23.21,5.66,5.66,0,0,0-.39-.92,4.33,4.33,0,0,0-.54-.8,3.32,3.32,0,0,1-.83.76,6.08,6.08,0,0,1-1.29.68,3.67,3.67,0,0,1-1.29.28A2.65,2.65,0,0,1,395.77,69a3.3,3.3,0,0,1-.29-1.36A2.94,2.94,0,0,1,395.85,66.05Zm3.14,3.1a4.51,4.51,0,0,0,1.22-.21,6.25,6.25,0,0,0,1.2-.44V65.3a11,11,0,0,0-1.87.27,6.63,6.63,0,0,0-1.23.42,2.25,2.25,0,0,0-.62.41,1,1,0,0,0-.2.72,2.14,2.14,0,0,0,.16.79,2.66,2.66,0,0,0,.41.74,1.43,1.43,0,0,0,.56.43A1,1,0,0,0,399,69.15Z" transform="translate(-12.25 -10.07)"/><path class="cls-2" d="M223.55,98.46l.2-.91H230l-.16.93-1.84.59v9a18.52,18.52,0,0,1-.22,3.31,6.17,6.17,0,0,1-.85,2.15,26.87,26.87,0,0,1-2.15,2.79l-.73-.52q.48-1,1.17-2.82a9.83,9.83,0,0,0,.69-2.19V99.06Z" transform="translate(-12.25 -10.07)"/><path class="cls-2" d="M232.14,108.42a2.61,2.61,0,0,1,1.26-.94,6.51,6.51,0,0,1,1.6-.41,15,15,0,0,1,1.82-.13,8.19,8.19,0,0,1,.87,0v-.59a7,7,0,0,0-.22-1.83,1.82,1.82,0,0,0-.88-1.19,1.7,1.7,0,0,0-.6-.19,4.18,4.18,0,0,0-.8-.07,3,3,0,0,0-.73.08l-.37,2a1.39,1.39,0,0,1-.67.17,1.23,1.23,0,0,1-.58-.17,1.49,1.49,0,0,1-.5-.43,1,1,0,0,1-.19-.58c0-.39.3-.75.91-1.09a7.6,7.6,0,0,1,1.3-.54c.5-.16,1-.28,1.43-.38a5.59,5.59,0,0,1,1-.13,2.54,2.54,0,0,1,2.17.88,3.88,3.88,0,0,1,.67,2.41v5.26a4.14,4.14,0,0,0,.86.68,3.74,3.74,0,0,0,1,.4l-.13.63a8.27,8.27,0,0,1-1.26.46,6.54,6.54,0,0,1-1.23.2,7.27,7.27,0,0,0-.39-.92,4.69,4.69,0,0,0-.54-.8,3.14,3.14,0,0,1-.83.76,6,6,0,0,1-1.3.69,3.55,3.55,0,0,1-1.28.27,2.74,2.74,0,0,1-1.59-.44,2.67,2.67,0,0,1-.93-1.11,3.31,3.31,0,0,1-.3-1.36A2.92,2.92,0,0,1,232.14,108.42Zm3.14,3.09a4.94,4.94,0,0,0,1.22-.2,6.8,6.8,0,0,0,1.19-.45v-3.2a10.79,10.79,0,0,0-1.86.28,6.09,6.09,0,0,0-1.24.42,2,2,0,0,0-.61.41,1,1,0,0,0-.21.72,2.31,2.31,0,0,0,.16.78,2.8,2.8,0,0,0,.42.74,1.28,1.28,0,0,0,.56.43A.79.79,0,0,0,235.28,111.51Z" transform="translate(-12.25 -10.07)"/><path class="cls-2" d="M242.8,103.35l.09-.52,3-.65.48,2.17a6.57,6.57,0,0,1,1.35-1.77,2.07,2.07,0,0,1,1.36-.51,2.51,2.51,0,0,1,.57.08,1.8,1.8,0,0,1,.57.23,1.38,1.38,0,0,1,.47.39.89.89,0,0,1,.18.55,1.5,1.5,0,0,1-.2.7,1.94,1.94,0,0,1-.52.61,1,1,0,0,1-.62.24,1.74,1.74,0,0,1-.39-.05,1.52,1.52,0,0,1-.36-.12l-.22-1.21a4.88,4.88,0,0,0-1.06.64,12.53,12.53,0,0,0-1.07.86v6.31l2.81.5-.19.87H242.7l.18-1,1.6-.54v-7Z" transform="translate(-12.25 -10.07)"/><path class="cls-2" d="M262.41,111.24a3.47,3.47,0,0,0,1,.39l-.12.67a8,8,0,0,1-1.24.41,5.65,5.65,0,0,1-1.26.23,5.14,5.14,0,0,0-.37-.87,4,4,0,0,0-.55-.81,4,4,0,0,1-3.18,1.68,4.46,4.46,0,0,1-2.12-.52,3.94,3.94,0,0,1-1.62-1.64,5.78,5.78,0,0,1-.63-2.85,7,7,0,0,1,.65-3.06,5.19,5.19,0,0,1,1.74-2.1,4.22,4.22,0,0,1,2.42-.75,4.32,4.32,0,0,1,1.28.19,4,4,0,0,1,1.15.58V98.6l-1.69-.84.1-.5,3.55-.67v14A2.36,2.36,0,0,0,262.41,111.24Zm-2.81-.4v-5.29a3.25,3.25,0,0,0-.81-1.16,3.78,3.78,0,0,0-1.2-.75,3.87,3.87,0,0,0-1.33-.25,2.54,2.54,0,0,0-.76.1.93.93,0,0,0-.54.36,5,5,0,0,0-.7,2.94,6,6,0,0,0,.32,2,5.72,5.72,0,0,0,.81,1.54,3.25,3.25,0,0,0,1,.88l.32.15a.79.79,0,0,0,.28,0A7.05,7.05,0,0,0,259.6,110.84Z" transform="translate(-12.25 -10.07)"/><path class="cls-2" d="M266.43,111.29v-7.1l-1.68-.84.1-.51,3.54-.71v9.16l1.8.48-.2.9h-5.32l.17-.92Zm1.2-11.35a3.84,3.84,0,0,1-.83-.09.86.86,0,0,1-.52-.26,1,1,0,0,1-.13-.6,3.22,3.22,0,0,1,.11-.86.88.88,0,0,1,.26-.52.94.94,0,0,1,.58-.13,3.23,3.23,0,0,1,.85.12,1,1,0,0,1,.54.26.89.89,0,0,1,.13.54,3.37,3.37,0,0,1-.12.87,1.15,1.15,0,0,1-.27.56A1,1,0,0,1,267.63,99.94Z" transform="translate(-12.25 -10.07)"/><path class="cls-2" d="M271.67,103.35l.1-.51,3-.71.4,1.8a11.05,11.05,0,0,1,2.16-1.33,5,5,0,0,1,2.05-.56,2.58,2.58,0,0,1,1.33.36,2.75,2.75,0,0,1,1,1.24,5.63,5.63,0,0,1,.39,2.28v5.37l1.84.48-.19.9h-4.93l.18-1,1.15-.48v-4.58a4.67,4.67,0,0,0-.31-1.85,2.34,2.34,0,0,0-.73-1,.74.74,0,0,0-.42-.15,7.91,7.91,0,0,0-1.56.27c-.75.17-1.37.35-1.88.52a2.66,2.66,0,0,0,0,.28c0,.14,0,.26,0,.34v6.25l1.85.49-.2.89h-5.34l.18-1,1.56-.53v-7Z" transform="translate(-12.25 -10.07)"/><path class="cls-2" d="M292,111.74l1.91-.59V99.06l-2-.61.19-.9h3.9a20.7,20.7,0,0,1,3.57.25,4.45,4.45,0,0,1,2.29,1,2.9,2.9,0,0,1,.86,2.27,2.78,2.78,0,0,1-.51,1.67,3.79,3.79,0,0,1-1.3,1.15,6.38,6.38,0,0,1-1.72.6,7,7,0,0,1,2.11.61,4,4,0,0,1,1.55,1.27,3.17,3.17,0,0,1,.58,1.9,3.89,3.89,0,0,1-.93,2.81,4.53,4.53,0,0,1-2.48,1.26,21.1,21.1,0,0,1-3.93.31h-4.22Zm7.26-12.54a9.62,9.62,0,0,0-3.25-.79v13.37a17.71,17.71,0,0,0,2.52-.48,4.44,4.44,0,0,0,1.84-1,2.8,2.8,0,0,0-.3-4.11,8.37,8.37,0,0,0-3-1.25l.11-.64a5.27,5.27,0,0,0,2.48-1.17,2.51,2.51,0,0,0,.88-1.91A2.08,2.08,0,0,0,299.25,99.2Z" transform="translate(-12.25 -10.07)"/><path class="cls-2" d="M306.25,105a5.56,5.56,0,0,1,1.71-2.18,4,4,0,0,1,2.49-.82,5.15,5.15,0,0,1,2.41.55,4.07,4.07,0,0,1,1.7,1.69,5.59,5.59,0,0,1,.64,2.81,6.8,6.8,0,0,1-.63,2.89,5.71,5.71,0,0,1-1.71,2.17,3.86,3.86,0,0,1-2.36.81,5.56,5.56,0,0,1-2.49-.54,4,4,0,0,1-1.74-1.68,5.67,5.67,0,0,1-.64-2.83A6.86,6.86,0,0,1,306.25,105Zm5.74,6.33a1.86,1.86,0,0,0,.74-.43,2,2,0,0,0,.43-1,7.37,7.37,0,0,0,.14-1.35,7.05,7.05,0,0,0-.48-2.71,4.06,4.06,0,0,0-1.29-1.78,3,3,0,0,0-1.83-.62,2.53,2.53,0,0,0-1,.15,1.83,1.83,0,0,0-.63.42,2.34,2.34,0,0,0-.41,1,6.29,6.29,0,0,0-.16,1.41,7.63,7.63,0,0,0,.39,2.43,4.59,4.59,0,0,0,1.18,1.91,2.75,2.75,0,0,0,1.94.74A3.09,3.09,0,0,0,312,111.35Z" transform="translate(-12.25 -10.07)"/><path class="cls-2" d="M317.14,103.35l.1-.51,3-.71.4,1.8a11.05,11.05,0,0,1,2.16-1.33,5,5,0,0,1,2-.56,2.58,2.58,0,0,1,1.33.36,2.75,2.75,0,0,1,1,1.24,5.63,5.63,0,0,1,.39,2.28v5.37l1.84.48-.19.9H324.3l.18-1,1.15-.48v-4.58a4.67,4.67,0,0,0-.31-1.85,2.34,2.34,0,0,0-.73-1,.72.72,0,0,0-.42-.15,7.91,7.91,0,0,0-1.56.27c-.75.17-1.37.35-1.88.52a2.66,2.66,0,0,0,0,.28c0,.14,0,.26,0,.34v6.25l1.85.49-.2.89h-5.34l.18-1,1.56-.53v-7Z" transform="translate(-12.25 -10.07)"/><path class="cls-2" d="M330.42,102.29H332l.23-2.39,1.73-.71v3.1h3.46l-.18.95-3.28.57v4.85a5.22,5.22,0,0,0,.26,1.72,1.81,1.81,0,0,0,.76,1.05,1.09,1.09,0,0,0,.52.1,5.06,5.06,0,0,0,1.32-.19c.47-.13.73-.2.78-.2l.21.51a9.72,9.72,0,0,1-1.55.87,3.69,3.69,0,0,1-1.5.42q-2.76,0-2.76-3.72v-5.41l-1.81-.55Z" transform="translate(-12.25 -10.07)"/><path class="cls-2" d="M339.46,108.42a2.71,2.71,0,0,1,1.26-.94,6.51,6.51,0,0,1,1.6-.41,15,15,0,0,1,1.82-.13,8.51,8.51,0,0,1,.88,0v-.59a6.94,6.94,0,0,0-.23-1.83,1.82,1.82,0,0,0-.88-1.19,1.7,1.7,0,0,0-.6-.19,4.07,4.07,0,0,0-.79-.07,3.05,3.05,0,0,0-.74.08l-.37,2a1.35,1.35,0,0,1-.66.17,1.24,1.24,0,0,1-.59-.17,1.59,1.59,0,0,1-.5-.43,1,1,0,0,1-.19-.58c0-.39.3-.75.92-1.09a7.16,7.16,0,0,1,1.29-.54c.5-.16,1-.28,1.43-.38a5.79,5.79,0,0,1,1-.13,2.56,2.56,0,0,1,2.18.88,3.94,3.94,0,0,1,.66,2.41v5.26a4.14,4.14,0,0,0,.86.68,3.74,3.74,0,0,0,1,.4l-.13.63a8.27,8.27,0,0,1-1.26.46,6.29,6.29,0,0,1-1.23.2,7.27,7.27,0,0,0-.39-.92,4.69,4.69,0,0,0-.54-.8,3.14,3.14,0,0,1-.83.76,6.11,6.11,0,0,1-1.29.69,3.64,3.64,0,0,1-1.29.27,2.61,2.61,0,0,1-2.52-1.55,3.3,3.3,0,0,1-.29-1.36A2.93,2.93,0,0,1,339.46,108.42Zm3.14,3.09a4.87,4.87,0,0,0,1.22-.2,7.27,7.27,0,0,0,1.2-.45v-3.2a10.92,10.92,0,0,0-1.87.28,6.09,6.09,0,0,0-1.24.42,2.11,2.11,0,0,0-.61.41,1,1,0,0,0-.2.72,2.29,2.29,0,0,0,.15.78,2.8,2.8,0,0,0,.42.74,1.28,1.28,0,0,0,.56.43A.82.82,0,0,0,342.6,111.51Z" transform="translate(-12.25 -10.07)"/><path class="cls-2" d="M350.1,103.35l.09-.51,3-.71.39,1.8a11.68,11.68,0,0,1,2.16-1.33,5,5,0,0,1,2.06-.56,2.57,2.57,0,0,1,1.32.36,2.75,2.75,0,0,1,1,1.24,5.62,5.62,0,0,1,.4,2.28v5.37l1.83.48-.18.9h-4.94l.18-1,1.15-.48v-4.58a4.87,4.87,0,0,0-.3-1.85,2.43,2.43,0,0,0-.74-1,.72.72,0,0,0-.42-.15,8,8,0,0,0-1.56.27c-.74.17-1.37.35-1.88.52a2.31,2.31,0,0,1,0,.28c0,.14,0,.26,0,.34v6.25l1.85.49-.2.89H350l.19-1,1.55-.53v-7Z" transform="translate(-12.25 -10.07)"/><path class="cls-2" d="M365.34,111.29v-7.1l-1.68-.84.1-.51,3.54-.71v9.16l1.8.48-.2.9h-5.32l.17-.92Zm1.2-11.35a3.84,3.84,0,0,1-.83-.09.86.86,0,0,1-.52-.26,1,1,0,0,1-.13-.6,3.22,3.22,0,0,1,.11-.86.88.88,0,0,1,.26-.52.94.94,0,0,1,.58-.13,3.23,3.23,0,0,1,.85.12,1.11,1.11,0,0,1,.55.26.89.89,0,0,1,.12.54,3.37,3.37,0,0,1-.12.87,1.06,1.06,0,0,1-.27.56A1,1,0,0,1,366.54,99.94Z" transform="translate(-12.25 -10.07)"/><path class="cls-2" d="M376.51,112.57a3.7,3.7,0,0,1-1.63.37,3.92,3.92,0,0,1-2-.56,4,4,0,0,1-1.55-1.72,6.14,6.14,0,0,1-.6-2.9,6.81,6.81,0,0,1,.36-2.2,6.39,6.39,0,0,1,1.08-1.94,4.23,4.23,0,0,1,1.48-1.17,4.08,4.08,0,0,1,1.75-.41,4.59,4.59,0,0,1,1.74.3,3.46,3.46,0,0,1,1.37,1.1l1.88-1.31.53.77-1,1.82v11.66l1.86.54-.19.93h-6.17l.17-.85,2.37-.52V111.6A5,5,0,0,1,376.51,112.57Zm.64-8.13a3.75,3.75,0,0,0-1.17-.76,3.42,3.42,0,0,0-1.35-.29,2.52,2.52,0,0,0-.8.1,1,1,0,0,0-.53.37,3.19,3.19,0,0,0-.52,1.23,8.28,8.28,0,0,0-.16,1.71,6,6,0,0,0,.51,2.49,4.15,4.15,0,0,0,1.5,1.87,1.18,1.18,0,0,0,.73.23,6.44,6.44,0,0,0,1.29-.14,7.4,7.4,0,0,0,1.26-.4v-5.37A3.19,3.19,0,0,0,377.15,104.44Z" transform="translate(-12.25 -10.07)"/><path class="cls-2" d="M382.46,103.18l.18-.89h3.49v6a4.81,4.81,0,0,0,.31,1.89,2.37,2.37,0,0,0,.75,1,.89.89,0,0,0,.58.18,7.5,7.5,0,0,0,1.52-.18,7.94,7.94,0,0,0,1.45-.42v-6.84l-2-.75.19-.89h3.75v8.28a2,2,0,0,0,.55.51,4.31,4.31,0,0,0,.74.38,2.69,2.69,0,0,0,.6.18l-.14.66a6.31,6.31,0,0,1-1.19.41,5.16,5.16,0,0,1-1.3.23,5.82,5.82,0,0,0-.38-.91,3,3,0,0,0-.57-.85,5.68,5.68,0,0,1-1.79,1.24,5,5,0,0,1-2.17.52,2.89,2.89,0,0,1-1.42-.37,2.66,2.66,0,0,1-1-1.24,5.47,5.47,0,0,1-.4-2.29v-5.11Z" transform="translate(-12.25 -10.07)"/><path class="cls-2" d="M402.4,111.22a7.77,7.77,0,0,0,1.09-.33,6,6,0,0,0,.72-.31l.27.38a5.85,5.85,0,0,1-1,.89,6.56,6.56,0,0,1-1.38.77,4,4,0,0,1-1.51.32,4.69,4.69,0,0,1-2.26-.54,3.8,3.8,0,0,1-1.61-1.7,7.31,7.31,0,0,1,0-5.87,5,5,0,0,1,1.75-2.06,4.53,4.53,0,0,1,2.57-.75,3.56,3.56,0,0,1,1.86.46,3.07,3.07,0,0,1,1.19,1.26,3.68,3.68,0,0,1,.41,1.76,4.79,4.79,0,0,1-.23,1.47.66.66,0,0,1-.15.28.42.42,0,0,1-.29.09H398a5.52,5.52,0,0,0,.51,2,4,4,0,0,0,1.16,1.49,2.55,2.55,0,0,0,1.63.57A4.51,4.51,0,0,0,402.4,111.22Zm-3.48-7.65a3,3,0,0,0-.58,1.1,6.81,6.81,0,0,0-.33,1.85l4.73-.37a3,3,0,0,0-.37-1.55,2.41,2.41,0,0,0-1-1,2.85,2.85,0,0,0-1.37-.32A1.62,1.62,0,0,0,398.92,103.57Z" transform="translate(-12.25 -10.07)"/><path class="cls-2" d="M415.2,111.15V99.06l-2.05-.6.21-.91h3.52l8.2,11.85c-.1-1.54-.16-3.07-.18-4.6s0-3.45,0-5.75l-2.23-.59.19-.91h5.58l-.17.92-1.84.6V112.5l-1.58.44-8.35-12.28c.12,1.55.19,3.11.22,4.67s0,3.5,0,5.83l2.24.59-.2.92h-5.61l.18-.94Z" transform="translate(-12.25 -10.07)"/><path class="cls-2" d="M430.58,108.42a2.7,2.7,0,0,1,1.27-.94,6.28,6.28,0,0,1,1.6-.41,14.83,14.83,0,0,1,1.82-.13,8.31,8.31,0,0,1,.87,0v-.59a7.4,7.4,0,0,0-.22-1.83,1.86,1.86,0,0,0-.88-1.19,1.83,1.83,0,0,0-.61-.19,4.07,4.07,0,0,0-.79-.07,3,3,0,0,0-.73.08l-.38,2a1.35,1.35,0,0,1-.66.17,1.17,1.17,0,0,1-.58-.17,1.4,1.4,0,0,1-.5-.43,1,1,0,0,1-.2-.58c0-.39.31-.75.92-1.09a7.16,7.16,0,0,1,1.29-.54c.5-.16,1-.28,1.43-.38a5.79,5.79,0,0,1,1-.13,2.56,2.56,0,0,1,2.18.88,3.94,3.94,0,0,1,.66,2.41v5.26a4,4,0,0,0,.87.68,3.56,3.56,0,0,0,1,.4l-.13.63a7.9,7.9,0,0,1-1.26.46,6.29,6.29,0,0,1-1.23.2A5.19,5.19,0,0,0,437,112a4.69,4.69,0,0,0-.54-.8,3,3,0,0,1-.83.76,6.11,6.11,0,0,1-1.29.69,3.63,3.63,0,0,1-1.28.27,2.61,2.61,0,0,1-2.53-1.55,3.46,3.46,0,0,1-.29-1.36A2.93,2.93,0,0,1,430.58,108.42Zm3.15,3.09a4.87,4.87,0,0,0,1.21-.2,6.64,6.64,0,0,0,1.2-.45v-3.2a11.08,11.08,0,0,0-1.87.28,6.19,6.19,0,0,0-1.23.42,1.85,1.85,0,0,0-.61.41,1,1,0,0,0-.21.72,2.09,2.09,0,0,0,.16.78,2.34,2.34,0,0,0,.42.74,1.26,1.26,0,0,0,.55.43A.83.83,0,0,0,433.73,111.51Z" transform="translate(-12.25 -10.07)"/><path class="cls-2" d="M440.92,102.29h1.62l.23-2.39,1.72-.71v3.1H448l-.18.95-3.29.57v4.85a5.22,5.22,0,0,0,.27,1.72,1.81,1.81,0,0,0,.76,1.05,1.05,1.05,0,0,0,.51.1,5.08,5.08,0,0,0,1.33-.19c.47-.13.73-.2.78-.2l.21.51a9.42,9.42,0,0,1-1.56.87,3.65,3.65,0,0,1-1.49.42q-2.76,0-2.76-3.72v-5.41l-1.81-.55Z" transform="translate(-12.25 -10.07)"/><path class="cls-2" d="M451.19,111.29v-7.1l-1.68-.84.1-.51,3.53-.71v9.16l1.81.48-.2.9h-5.32l.17-.92Zm1.2-11.35a3.84,3.84,0,0,1-.83-.09.86.86,0,0,1-.52-.26,1,1,0,0,1-.13-.6,3.67,3.67,0,0,1,.1-.86.7.7,0,0,1,.85-.65,3.23,3.23,0,0,1,.85.12,1,1,0,0,1,.54.26.89.89,0,0,1,.12.54,3.35,3.35,0,0,1-.11.87,1.15,1.15,0,0,1-.27.56A1,1,0,0,1,452.39,99.94Z" transform="translate(-12.25 -10.07)"/><path class="cls-2" d="M457.17,105a5.49,5.49,0,0,1,1.72-2.18,4,4,0,0,1,2.48-.82,5.15,5.15,0,0,1,2.41.55,4.09,4.09,0,0,1,1.71,1.69,5.7,5.7,0,0,1,.63,2.81,6.8,6.8,0,0,1-.63,2.89,5.71,5.71,0,0,1-1.71,2.17,3.83,3.83,0,0,1-2.36.81,5.56,5.56,0,0,1-2.49-.54,4,4,0,0,1-1.74-1.68,5.78,5.78,0,0,1-.64-2.83A6.86,6.86,0,0,1,457.17,105Zm5.74,6.33a1.86,1.86,0,0,0,.74-.43,2,2,0,0,0,.43-1,7.37,7.37,0,0,0,.14-1.35,7.05,7.05,0,0,0-.48-2.71,4,4,0,0,0-1.29-1.78,3,3,0,0,0-1.82-.62,2.58,2.58,0,0,0-1,.15,1.83,1.83,0,0,0-.63.42,2.35,2.35,0,0,0-.4,1,6.31,6.31,0,0,0-.17,1.41,7.63,7.63,0,0,0,.39,2.43,4.59,4.59,0,0,0,1.18,1.91,2.75,2.75,0,0,0,1.94.74A3,3,0,0,0,462.91,111.35Z" transform="translate(-12.25 -10.07)"/><path class="cls-2" d="M468.06,103.35l.1-.51,3-.71.39,1.8a11.68,11.68,0,0,1,2.16-1.33,5,5,0,0,1,2.05-.56,2.58,2.58,0,0,1,1.33.36,2.75,2.75,0,0,1,1,1.24,5.62,5.62,0,0,1,.4,2.28v5.37l1.83.48-.19.9h-4.93l.18-1,1.15-.48v-4.58a4.67,4.67,0,0,0-.31-1.85,2.34,2.34,0,0,0-.73-1,.72.72,0,0,0-.42-.15,8,8,0,0,0-1.56.27c-.75.17-1.37.35-1.88.52,0,0,0,.14,0,.28s0,.26,0,.34v6.25l1.85.49-.2.89H468l.19-1,1.55-.53v-7Z" transform="translate(-12.25 -10.07)"/><path class="cls-2" d="M482.08,108.42a2.71,2.71,0,0,1,1.26-.94,6.48,6.48,0,0,1,1.61-.41,14.68,14.68,0,0,1,1.81-.13,8.51,8.51,0,0,1,.88,0v-.59a6.94,6.94,0,0,0-.23-1.83,1.82,1.82,0,0,0-.88-1.19,1.7,1.7,0,0,0-.6-.19,4.07,4.07,0,0,0-.79-.07,3.05,3.05,0,0,0-.74.08l-.37,2a1.35,1.35,0,0,1-.66.17,1.24,1.24,0,0,1-.59-.17,1.59,1.59,0,0,1-.5-.43,1,1,0,0,1-.19-.58c0-.39.3-.75.92-1.09a7.16,7.16,0,0,1,1.29-.54c.5-.16,1-.28,1.43-.38a5.79,5.79,0,0,1,1-.13,2.56,2.56,0,0,1,2.18.88,3.94,3.94,0,0,1,.66,2.41v5.26a4.14,4.14,0,0,0,.86.68,3.74,3.74,0,0,0,1,.4l-.13.63a8.27,8.27,0,0,1-1.26.46,6.29,6.29,0,0,1-1.23.2,7.27,7.27,0,0,0-.39-.92,4.69,4.69,0,0,0-.54-.8,3.14,3.14,0,0,1-.83.76,6.11,6.11,0,0,1-1.29.69,3.64,3.64,0,0,1-1.29.27,2.61,2.61,0,0,1-2.52-1.55,3.3,3.3,0,0,1-.29-1.36A2.93,2.93,0,0,1,482.08,108.42Zm3.14,3.09a4.87,4.87,0,0,0,1.22-.2,6.94,6.94,0,0,0,1.2-.45v-3.2a10.92,10.92,0,0,0-1.87.28,6.09,6.09,0,0,0-1.24.42,2.11,2.11,0,0,0-.61.41,1,1,0,0,0-.2.72,2.29,2.29,0,0,0,.15.78,2.8,2.8,0,0,0,.42.74,1.28,1.28,0,0,0,.56.43A.82.82,0,0,0,485.22,111.51Z" transform="translate(-12.25 -10.07)"/><path class="cls-2" d="M492.48,97.76l.09-.52,3.54-.65v14.7l1.86.48-.2.9h-5.31l.19-.91,1.51-.47V98.61Z" transform="translate(-12.25 -10.07)"/><path class="cls-2" d="M516.08,111.24a3.62,3.62,0,0,0,1,.39l-.12.67a8,8,0,0,1-1.24.41,5.65,5.65,0,0,1-1.26.23,5.14,5.14,0,0,0-.37-.87,4,4,0,0,0-.55-.81,4,4,0,0,1-3.18,1.68,4.43,4.43,0,0,1-2.12-.52,3.94,3.94,0,0,1-1.62-1.64,5.78,5.78,0,0,1-.63-2.85,7,7,0,0,1,.65-3.06,5.19,5.19,0,0,1,1.74-2.1,4.22,4.22,0,0,1,2.42-.75,4.32,4.32,0,0,1,1.28.19,4,4,0,0,1,1.15.58V98.6l-1.69-.84.1-.5,3.55-.67v14A2.4,2.4,0,0,0,516.08,111.24Zm-2.8-.4v-5.29a3.27,3.27,0,0,0-.82-1.16,3.63,3.63,0,0,0-1.19-.75,3.87,3.87,0,0,0-1.33-.25,2.54,2.54,0,0,0-.76.1.93.93,0,0,0-.54.36,5,5,0,0,0-.7,2.94,6,6,0,0,0,.32,2,5.72,5.72,0,0,0,.81,1.54,3.25,3.25,0,0,0,1,.88l.32.15a.79.79,0,0,0,.28,0A7.05,7.05,0,0,0,513.28,110.84Z" transform="translate(-12.25 -10.07)"/><path class="cls-2" d="M518,103.18l.19-.89h3.48v6a5,5,0,0,0,.31,1.89,2.45,2.45,0,0,0,.75,1,.91.91,0,0,0,.58.18,9.28,9.28,0,0,0,3-.6v-6.84l-2-.75.2-.89h3.75v8.28a1.91,1.91,0,0,0,.54.51,4.71,4.71,0,0,0,.74.38,3,3,0,0,0,.6.18l-.14.66a6.06,6.06,0,0,1-1.19.41,5.16,5.16,0,0,1-1.3.23,4.79,4.79,0,0,0-.37-.91,3.17,3.17,0,0,0-.58-.85,5.63,5.63,0,0,1-1.78,1.24,5,5,0,0,1-2.17.52,2.86,2.86,0,0,1-1.42-.37,2.6,2.6,0,0,1-1-1.24,5.47,5.47,0,0,1-.4-2.29v-5.11Z" transform="translate(-12.25 -10.07)"/><path class="cls-2" d="M227.38,134.54a5.87,5.87,0,0,1-2.3-2.5,8.35,8.35,0,0,1-.82-3.83,11.46,11.46,0,0,1,.77-4.3,7,7,0,0,1,2.21-3.07,5.77,5.77,0,0,1,1.9-1,7.69,7.69,0,0,1,2.27-.31,8.53,8.53,0,0,1,1.12.07c.38,0,.8.13,1.28.22l1.39-.2.42,4-1.05.25-1-2.27a8.35,8.35,0,0,0-1.33-.45,7.16,7.16,0,0,0-1.48-.14,4.59,4.59,0,0,0-1.53.25,3.38,3.38,0,0,0-1.14.6,4.58,4.58,0,0,0-1.17,2,11.14,11.14,0,0,0-.46,3.42,9,9,0,0,0,.35,2.46,5.91,5.91,0,0,0,1,2,4.64,4.64,0,0,0,1.64,1.39,4.48,4.48,0,0,0,2,.45,5.37,5.37,0,0,0,1.41-.25c.59-.16,1.17-.35,1.73-.55a10.38,10.38,0,0,0,1.16-.47l.5.76a8.92,8.92,0,0,1-2.47,1.73,7.07,7.07,0,0,1-2.89.54A6.56,6.56,0,0,1,227.38,134.54Z" transform="translate(-12.25 -10.07)"/><path class="cls-2" d="M238.26,130.79a2.63,2.63,0,0,1,1.27-.94,5.89,5.89,0,0,1,1.6-.41,14.83,14.83,0,0,1,1.82-.13q.45,0,.87,0v-.59a7,7,0,0,0-.22-1.83,1.83,1.83,0,0,0-.88-1.18,2,2,0,0,0-.61-.2,5,5,0,0,0-.79-.06,3.54,3.54,0,0,0-.73.07l-.37,2a1.42,1.42,0,0,1-.67.17,1.2,1.2,0,0,1-.58-.17,1.49,1.49,0,0,1-.5-.43,1,1,0,0,1-.2-.58c0-.39.31-.75.92-1.1a8.39,8.39,0,0,1,1.29-.53,12.86,12.86,0,0,1,1.44-.38,5.59,5.59,0,0,1,1-.13,2.54,2.54,0,0,1,2.17.88,3.86,3.86,0,0,1,.67,2.4v5.27a4.22,4.22,0,0,0,.86.68,3.74,3.74,0,0,0,1,.4l-.13.63a8,8,0,0,1-1.27.46,7.19,7.19,0,0,1-1.22.2,6.7,6.7,0,0,0-.39-.92,4.69,4.69,0,0,0-.54-.8,3.14,3.14,0,0,1-.83.76,6.42,6.42,0,0,1-1.3.68,3.45,3.45,0,0,1-1.28.28,2.72,2.72,0,0,1-1.6-.45,2.56,2.56,0,0,1-.92-1.1,3.31,3.31,0,0,1-.3-1.36A2.88,2.88,0,0,1,238.26,130.79Zm3.15,3.09a4.57,4.57,0,0,0,1.22-.21,6.13,6.13,0,0,0,1.19-.44V130a10.15,10.15,0,0,0-1.87.28,6.19,6.19,0,0,0-1.23.42,2,2,0,0,0-.61.41,1,1,0,0,0-.21.72,2.09,2.09,0,0,0,.16.78,2.55,2.55,0,0,0,.42.74,1.3,1.3,0,0,0,.56.43A.79.79,0,0,0,241.41,133.88Z" transform="translate(-12.25 -10.07)"/><path class="cls-2" d="M248.9,125.72l.1-.51,3-.71.39,1.8a11.68,11.68,0,0,1,2.16-1.33,4.88,4.88,0,0,1,2.06-.56,2.6,2.6,0,0,1,1.33.36,2.67,2.67,0,0,1,1,1.24,5.45,5.45,0,0,1,.4,2.28v5.37l1.84.48L261,135h-4.94l.19-.95,1.15-.48V129a4.67,4.67,0,0,0-.31-1.85,2.46,2.46,0,0,0-.73-1,.84.84,0,0,0-.43-.14,8.4,8.4,0,0,0-1.55.26c-.75.18-1.38.35-1.89.53,0,0,0,.13,0,.28s0,.25,0,.34v6.25l1.84.49-.19.88h-5.34l.18-1,1.55-.52v-7Z" transform="translate(-12.25 -10.07)"/><path class="cls-2" d="M262.91,130.79a2.63,2.63,0,0,1,1.27-.94,6,6,0,0,1,1.6-.41,14.83,14.83,0,0,1,1.82-.13q.45,0,.87,0v-.59a7,7,0,0,0-.22-1.83,1.83,1.83,0,0,0-.88-1.18,2,2,0,0,0-.61-.2,5,5,0,0,0-.79-.06,3.54,3.54,0,0,0-.73.07l-.37,2a1.42,1.42,0,0,1-.67.17,1.2,1.2,0,0,1-.58-.17,1.49,1.49,0,0,1-.5-.43,1,1,0,0,1-.2-.58c0-.39.31-.75.92-1.1a8.53,8.53,0,0,1,1.3-.53,12.18,12.18,0,0,1,1.43-.38,5.59,5.59,0,0,1,1-.13,2.54,2.54,0,0,1,2.17.88,3.86,3.86,0,0,1,.67,2.4v5.27a4.51,4.51,0,0,0,.86.68,3.74,3.74,0,0,0,1,.4l-.13.63a8,8,0,0,1-1.27.46,7.19,7.19,0,0,1-1.22.2,6.7,6.7,0,0,0-.39-.92,4.69,4.69,0,0,0-.54-.8,3.14,3.14,0,0,1-.83.76,6.42,6.42,0,0,1-1.3.68,3.41,3.41,0,0,1-1.28.28,2.67,2.67,0,0,1-1.59-.45,2.52,2.52,0,0,1-.93-1.1,3.31,3.31,0,0,1-.3-1.36A3,3,0,0,1,262.91,130.79Zm3.15,3.09a4.57,4.57,0,0,0,1.22-.21,6.13,6.13,0,0,0,1.19-.44V130a9.9,9.9,0,0,0-1.86.28,6.09,6.09,0,0,0-1.24.42,2,2,0,0,0-.61.41,1,1,0,0,0-.21.72,2.31,2.31,0,0,0,.16.78,2.8,2.8,0,0,0,.42.74,1.36,1.36,0,0,0,.56.43A.79.79,0,0,0,266.06,133.88Z" transform="translate(-12.25 -10.07)"/><path class="cls-2" d="M283.72,133.61a3.62,3.62,0,0,0,1,.39l-.12.66a6.9,6.9,0,0,1-1.24.42,5.65,5.65,0,0,1-1.26.23,5.58,5.58,0,0,0-.37-.88,4.16,4.16,0,0,0-.55-.8,4,4,0,0,1-3.18,1.68,4.55,4.55,0,0,1-2.12-.52,4.06,4.06,0,0,1-1.62-1.64,5.85,5.85,0,0,1-.63-2.86,7,7,0,0,1,.65-3,5.19,5.19,0,0,1,1.74-2.1,4.22,4.22,0,0,1,2.42-.75,4.32,4.32,0,0,1,1.28.19,3.77,3.77,0,0,1,1.15.58V121l-1.69-.84.1-.51,3.55-.66v14A2.4,2.4,0,0,0,283.72,133.61Zm-2.8-.4v-5.3a3.21,3.21,0,0,0-.81-1.15,3.78,3.78,0,0,0-1.2-.75,3.65,3.65,0,0,0-1.33-.25,2.93,2.93,0,0,0-.76.09,1,1,0,0,0-.54.37,5,5,0,0,0-.7,2.94,6.06,6.06,0,0,0,.32,2,5.72,5.72,0,0,0,.81,1.54,3.25,3.25,0,0,0,1,.88l.32.15a1.11,1.11,0,0,0,.28,0A7.25,7.25,0,0,0,280.92,133.21Z" transform="translate(-12.25 -10.07)"/><path class="cls-2" d="M286.52,130.79a2.6,2.6,0,0,1,1.26-.94,6.09,6.09,0,0,1,1.6-.41,15,15,0,0,1,1.82-.13c.3,0,.59,0,.88,0v-.59a7,7,0,0,0-.23-1.83,1.83,1.83,0,0,0-.88-1.18,1.91,1.91,0,0,0-.6-.2,5.19,5.19,0,0,0-.8-.06,3.61,3.61,0,0,0-.73.07l-.37,2a1.35,1.35,0,0,1-.66.17,1.24,1.24,0,0,1-.59-.17,1.49,1.49,0,0,1-.5-.43,1,1,0,0,1-.19-.58c0-.39.3-.75.91-1.1a8.53,8.53,0,0,1,1.3-.53,12.72,12.72,0,0,1,1.43-.38,5.59,5.59,0,0,1,1-.13,2.52,2.52,0,0,1,2.17.88,3.86,3.86,0,0,1,.67,2.4v5.27a4.51,4.51,0,0,0,.86.68,3.74,3.74,0,0,0,1,.4l-.13.63a8.27,8.27,0,0,1-1.26.46,7.46,7.46,0,0,1-1.23.2,6.7,6.7,0,0,0-.39-.92,4.69,4.69,0,0,0-.54-.8,3.14,3.14,0,0,1-.83.76,6.08,6.08,0,0,1-1.29.68,3.46,3.46,0,0,1-1.29.28,2.65,2.65,0,0,1-2.52-1.55,3.31,3.31,0,0,1-.3-1.36A2.88,2.88,0,0,1,286.52,130.79Zm3.14,3.09a4.51,4.51,0,0,0,1.22-.21,6.51,6.51,0,0,0,1.2-.44V130a9.89,9.89,0,0,0-1.87.28,6.09,6.09,0,0,0-1.24.42,2.11,2.11,0,0,0-.61.41,1,1,0,0,0-.21.72,2.31,2.31,0,0,0,.16.78,2.8,2.8,0,0,0,.42.74,1.36,1.36,0,0,0,.56.43A.82.82,0,0,0,289.66,133.88Z" transform="translate(-12.25 -10.07)"/><path class="cls-2" d="M309.69,139.37l-.17.85h-6.24l.17-.95,1.57-.53V126.57l-1.68-.85.09-.51,3-.66.37,1.47c.49-.34.91-.61,1.25-.82a7.2,7.2,0,0,1,1.15-.55,3.41,3.41,0,0,1,1.24-.24,3.27,3.27,0,0,1,2,.6,3.73,3.73,0,0,1,1.28,1.75,7.68,7.68,0,0,1,.44,2.74,6.64,6.64,0,0,1-.61,2.81,5.58,5.58,0,0,1-1.64,2.15,4.42,4.42,0,0,1-1.08.61,3.12,3.12,0,0,1-1.19.24,3.92,3.92,0,0,1-1.52-.29,2.58,2.58,0,0,1-1.12-.86v4.69Zm-2.72-12v5a3.19,3.19,0,0,0,1.48,1,5.48,5.48,0,0,0,1.81.32,2.38,2.38,0,0,0,1-.17,1.08,1.08,0,0,0,.42-.55,4.82,4.82,0,0,0,.36-1.16,7.84,7.84,0,0,0,.13-1.48,6.52,6.52,0,0,0-.45-2.54,3.89,3.89,0,0,0-1.2-1.65,1.13,1.13,0,0,0-.73-.24,6.51,6.51,0,0,0-1.31.2,15.66,15.66,0,0,0-1.57.46A6.21,6.21,0,0,1,307,127.41Z" transform="translate(-12.25 -10.07)"/><path class="cls-2" d="M316.87,127.39a5.67,5.67,0,0,1,1.72-2.18,4,4,0,0,1,2.48-.82,5.19,5.19,0,0,1,2.42.55,4,4,0,0,1,1.7,1.68,5.77,5.77,0,0,1,.63,2.82,6.8,6.8,0,0,1-.62,2.89,5.6,5.6,0,0,1-1.71,2.16,3.81,3.81,0,0,1-2.36.82,5.6,5.6,0,0,1-2.5-.54,4,4,0,0,1-1.73-1.68,5.67,5.67,0,0,1-.64-2.83A6.85,6.85,0,0,1,316.87,127.39Zm5.74,6.33a1.83,1.83,0,0,0,.75-.43,2,2,0,0,0,.42-1,6.59,6.59,0,0,0,.14-1.35,7.11,7.11,0,0,0-.47-2.72,4.19,4.19,0,0,0-1.3-1.78,2.94,2.94,0,0,0-1.82-.61,2.77,2.77,0,0,0-1,.14,1.91,1.91,0,0,0-.63.43,2.22,2.22,0,0,0-.41,1,6.29,6.29,0,0,0-.16,1.41,7.63,7.63,0,0,0,.39,2.43,4.39,4.39,0,0,0,1.18,1.9,2.69,2.69,0,0,0,1.93.75A3,3,0,0,0,322.61,133.72Z" transform="translate(-12.25 -10.07)"/><path class="cls-2" d="M327.34,125.54l.19-.88H331v6a5,5,0,0,0,.31,1.89,2.45,2.45,0,0,0,.75,1.05.93.93,0,0,0,.58.18,8.8,8.8,0,0,0,3-.61V126.3l-2-.76.2-.88h3.75v8.28a1.75,1.75,0,0,0,.54.5,3.83,3.83,0,0,0,.75.39,2.69,2.69,0,0,0,.6.18l-.14.65a6.34,6.34,0,0,1-1.2.42,5.09,5.09,0,0,1-1.3.23,4.79,4.79,0,0,0-.37-.91,2.82,2.82,0,0,0-.58-.85,5.79,5.79,0,0,1-1.78,1.24,5.18,5.18,0,0,1-2.17.52,2.86,2.86,0,0,1-1.42-.37,2.6,2.6,0,0,1-1-1.24,5.5,5.5,0,0,1-.4-2.29V126.3Z" transform="translate(-12.25 -10.07)"/><path class="cls-2" d="M340.92,125.72l.1-.53,3-.64.48,2.17a6.78,6.78,0,0,1,1.35-1.77,2.09,2.09,0,0,1,1.36-.51,2.37,2.37,0,0,1,.57.08,2,2,0,0,1,.58.23,1.35,1.35,0,0,1,.46.39.89.89,0,0,1,.18.55,1.5,1.5,0,0,1-.2.7,2.18,2.18,0,0,1-.51.61,1,1,0,0,1-.62.24,1.9,1.9,0,0,1-.4,0,2.38,2.38,0,0,1-.35-.12l-.22-1.21a5.26,5.26,0,0,0-1.07.63,12.35,12.35,0,0,0-1.06.87v6.31l2.8.5-.18.86h-6.36l.19-.95,1.59-.53v-7Z" transform="translate(-12.25 -10.07)"/><path class="cls-2" d="M367.05,133.34l1.35-2,.86.22L368.4,135H356.89l.17-.92,2-.62V121.4l-2-.61.22-.87h9.45l1.39-.14.37,3.83-1,.24-1.08-2.42-5.23-.55v6.06c1.05-.13,2.13-.22,3.22-.26l.67-1.86.86.23-.2,4.93-.86-.19-.49-1.73c-.64,0-1.21,0-1.73-.05a13.46,13.46,0,0,1-1.47-.17V134Z" transform="translate(-12.25 -10.07)"/><path class="cls-2" d="M370.91,125.72l.1-.51,3-.71.4,1.8a11.28,11.28,0,0,1,2.15-1.33,4.88,4.88,0,0,1,2.06-.56,2.58,2.58,0,0,1,1.33.36,2.67,2.67,0,0,1,1,1.24,5.45,5.45,0,0,1,.4,2.28v5.37l1.84.48L383,135h-4.93l.18-.95,1.15-.48V129a4.67,4.67,0,0,0-.31-1.85,2.37,2.37,0,0,0-.73-1,.81.81,0,0,0-.42-.14,8.47,8.47,0,0,0-1.56.26,19.39,19.39,0,0,0-1.88.53s0,.13,0,.28,0,.25,0,.34v6.25l1.85.49-.2.88h-5.34l.18-1,1.55-.52v-7Z" transform="translate(-12.25 -10.07)"/><path class="cls-2" d="M386.24,133.55v-7.37l-1.81-.56.19-1h1.62a10.47,10.47,0,0,1,.42-3.27,3.38,3.38,0,0,1,1.35-1.84,4.67,4.67,0,0,1,2.5-.59,4.37,4.37,0,0,1,1.8.3,1.65,1.65,0,0,1,.51.39.86.86,0,0,1,.21.57,1.2,1.2,0,0,1-.2.64,1.72,1.72,0,0,1-.51.53,1.07,1.07,0,0,1-.58.2,1.51,1.51,0,0,1-.7-.19l-.35-1.78a2.44,2.44,0,0,0-1.62.87,3.75,3.75,0,0,0-.72,1.73,15.26,15.26,0,0,0-.17,2.44h3.41l-.15.88-3.26.62v7.5l2.77.51-.18.86h-6.31l.18-.95Z" transform="translate(-12.25 -10.07)"/><path class="cls-2" d="M393.3,130.79a2.63,2.63,0,0,1,1.27-.94,5.89,5.89,0,0,1,1.6-.41,14.83,14.83,0,0,1,1.82-.13q.45,0,.87,0v-.59a7,7,0,0,0-.22-1.83,1.83,1.83,0,0,0-.88-1.18,2,2,0,0,0-.61-.2,5,5,0,0,0-.79-.06,3.54,3.54,0,0,0-.73.07l-.37,2a1.42,1.42,0,0,1-.67.17,1.2,1.2,0,0,1-.58-.17,1.49,1.49,0,0,1-.5-.43,1,1,0,0,1-.2-.58c0-.39.31-.75.92-1.1a8.39,8.39,0,0,1,1.29-.53,12.86,12.86,0,0,1,1.44-.38,5.59,5.59,0,0,1,1-.13,2.54,2.54,0,0,1,2.17.88,3.86,3.86,0,0,1,.67,2.4v5.27a4.22,4.22,0,0,0,.86.68,3.74,3.74,0,0,0,1,.4l-.13.63a8,8,0,0,1-1.27.46,7.19,7.19,0,0,1-1.22.2,6.7,6.7,0,0,0-.39-.92,4.69,4.69,0,0,0-.54-.8,3.14,3.14,0,0,1-.83.76,6.42,6.42,0,0,1-1.3.68,3.45,3.45,0,0,1-1.28.28,2.72,2.72,0,0,1-1.6-.45,2.56,2.56,0,0,1-.92-1.1,3.31,3.31,0,0,1-.3-1.36A2.88,2.88,0,0,1,393.3,130.79Zm3.15,3.09a4.57,4.57,0,0,0,1.22-.21,6.13,6.13,0,0,0,1.19-.44V130a10.15,10.15,0,0,0-1.87.28,6.19,6.19,0,0,0-1.23.42,2,2,0,0,0-.61.41,1,1,0,0,0-.21.72,2.09,2.09,0,0,0,.16.78,2.55,2.55,0,0,0,.42.74,1.3,1.3,0,0,0,.56.43A.79.79,0,0,0,396.45,133.88Z" transform="translate(-12.25 -10.07)"/><path class="cls-2" d="M403.94,125.72l.1-.51,3-.71.4,1.8a11.28,11.28,0,0,1,2.15-1.33,4.88,4.88,0,0,1,2.06-.56,2.6,2.6,0,0,1,1.33.36,2.67,2.67,0,0,1,1,1.24,5.45,5.45,0,0,1,.4,2.28v5.37l1.84.48L416,135h-4.94l.19-.95,1.15-.48V129a4.67,4.67,0,0,0-.31-1.85,2.46,2.46,0,0,0-.73-1A.84.84,0,0,0,411,126a8.4,8.4,0,0,0-1.55.26c-.75.18-1.38.35-1.89.53,0,0,0,.13,0,.28s0,.25,0,.34v6.25l1.84.49-.19.88h-5.34l.18-1,1.55-.52v-7Z" transform="translate(-12.25 -10.07)"/><path class="cls-2" d="M417.22,124.66h1.62l.23-2.39,1.72-.71v3.1h3.47l-.18,1-3.29.57V131a5.22,5.22,0,0,0,.27,1.72,1.77,1.77,0,0,0,.76,1.05,1.05,1.05,0,0,0,.51.1,5.08,5.08,0,0,0,1.33-.19c.47-.13.73-.2.78-.2l.21.51a10.71,10.71,0,0,1-1.56.87,3.65,3.65,0,0,1-1.49.42q-2.76,0-2.76-3.73v-5.4l-1.81-.55Z" transform="translate(-12.25 -10.07)"/><path class="cls-2" d="M429.42,125.64a4.19,4.19,0,0,0-1.22.57.87.87,0,0,0-.33.76,1.64,1.64,0,0,0,1.08,1.42,3.42,3.42,0,0,0,.59.26l.84.27c.43.13.78.24,1.05.34a4.29,4.29,0,0,1,.77.39,2.59,2.59,0,0,1,.84.9,2.82,2.82,0,0,1,.3,1.34,3.32,3.32,0,0,1-.51,1.88,3.13,3.13,0,0,1-1.4,1.16,5.06,5.06,0,0,1-2,.38,6.59,6.59,0,0,1-1.58-.17,4.39,4.39,0,0,1-1.12-.41,7.64,7.64,0,0,1-.93-.63l.49-2.4,1.14.27.41,2.1a11.85,11.85,0,0,0,1.89-.15,3.88,3.88,0,0,0,1.48-.5,1,1,0,0,0,.4-.88,1.6,1.6,0,0,0-.18-.75,1.79,1.79,0,0,0-.61-.62,3.13,3.13,0,0,0-.63-.33c-.24-.09-.53-.2-.89-.3l-.4-.14-.57-.21a4.12,4.12,0,0,1-.47-.22,3.23,3.23,0,0,1-1.16-1.07,2.86,2.86,0,0,1-.42-1.55,2.44,2.44,0,0,1,.56-1.66,3.26,3.26,0,0,1,1.47-1,6.12,6.12,0,0,1,2-.31,4.12,4.12,0,0,1,2.07.48,1.28,1.28,0,0,1,.76,1,1.17,1.17,0,0,1-.2.63,1.67,1.67,0,0,1-.5.49,1.12,1.12,0,0,1-.58.18,1.51,1.51,0,0,1-.68-.15l-.33-1.7A6.34,6.34,0,0,0,429.42,125.64Z" transform="translate(-12.25 -10.07)"/><rect class="cls-1" x="210.8" y="73.85" width="314.7" height="1.6"/></svg>