<svg width="78" height="60" viewBox="0 0 78 60" fill="none" xmlns="http://www.w3.org/2000/svg">
<g clip-path="url(#clip0_105_148)">
<path d="M22.6359 27.0782C23.9442 22.2413 25.8931 17.5998 28.4311 13.2764C34.5605 22.8432 37.8279 33.9543 37.8501 45.3071C37.8431 48.7339 37.5365 52.1535 36.9339 55.5272C31.1093 55.6959 25.3372 56.6785 19.7863 58.4465L0 22.3771C14.3484 27.5488 25.9114 36.3206 32.5725 47.1163C31.1276 39.6673 27.6948 32.7449 22.6359 27.0782Z" fill="#113B7B"/>
<path d="M55.3458 27.0782C54.0358 22.2411 52.0854 17.5997 49.546 13.2764C43.4166 22.8432 40.1492 33.9543 40.127 45.3071C40.1295 48.7341 40.4361 52.1541 41.0432 55.5272C46.8678 55.6959 52.6399 56.6785 58.1907 58.4465L78 22.3543C63.6241 27.5625 52.0565 36.3343 45.3816 47.13C46.8313 39.6731 50.2739 32.7451 55.3458 27.0782Z" fill="#113B7B"/>
<path d="M38.9865 57.003C33.0368 56.9979 27.1181 57.8582 21.4175 59.5569C27.1211 59.8493 33.008 60.0138 38.9865 60.0138C44.965 60.0138 50.8977 59.863 56.5967 59.5569C50.883 57.8534 44.9501 56.993 38.9865 57.003Z" fill="#113B7B"/>
<path d="M38.9632 32.2683C40.2324 24.3239 43.0812 16.7127 47.3423 9.88198C44.9028 6.30276 42.0911 2.99041 38.9541 0C35.8241 2.99319 33.0172 6.30527 30.5796 9.88198C34.8412 16.712 37.6886 24.3236 38.9541 32.2683H38.9632Z" fill="#113B7B"/>
<path d="M21.9989 31.2906C19.849 27.4201 18.4999 23.1587 18.0315 18.7588C15.759 18.0286 13.4158 17.5386 11.0406 17.2969C10.6973 19.6531 10.6005 22.0386 10.752 24.4148C14.9101 25.9405 18.7212 28.278 21.9622 31.2906H21.9989Z" fill="#113B7B"/>
<path d="M55.9321 31.2906C58.0758 27.4175 59.4245 23.1574 59.8995 18.7588C62.169 18.0291 64.5091 17.5391 66.8813 17.2969C67.2246 19.6531 67.3213 22.0386 67.1699 24.4148C63.0034 25.9294 59.1826 28.2594 55.9321 31.2678V31.2906Z" fill="#113B7B"/>
</g>
<defs>
<clipPath id="clip0_105_148">
<rect width="78" height="60" fill="white"/>
</clipPath>
</defs>
</svg>
