<svg width="144" height="133" viewBox="0 0 144 133" fill="none" xmlns="http://www.w3.org/2000/svg">
<g clip-path="url(#clip0_404_63)">
<path fill-rule="evenodd" clip-rule="evenodd" d="M31.251 112.39C32.1702 113.811 33.8042 114.624 35.4383 114.624C35.726 114.624 35.9813 114.591 36.2042 114.563C36.3769 114.541 36.5301 114.522 36.6638 114.522L68.017 106.197C68.4905 106.065 68.9675 105.958 69.4468 105.875V130.36C69.4468 131.782 70.5702 132.898 72 132.898C73.4298 132.898 74.5532 131.782 74.5532 130.36V105.912C74.9637 105.989 75.3725 106.084 75.7787 106.197L107.132 114.522C109.277 115.131 111.523 114.319 112.749 112.492C113.974 110.664 113.974 108.431 112.647 106.603L110.196 103.151C109.889 102.745 109.787 102.237 109.889 101.73C109.991 101.222 110.298 100.816 110.706 100.511L141.549 80.6122C142.774 79.8 143.489 78.4801 143.489 77.0588C143.489 75.6374 142.774 74.3175 141.549 73.5053L137.668 70.9671C135.728 69.7488 134.808 67.4137 135.319 65.1801L136.953 57.5656C137.362 55.6366 136.851 53.5046 135.421 52.0832C133.991 50.6618 132.051 49.9511 130.008 50.2557L120.919 51.5755C119.081 51.7786 117.243 50.8649 116.426 49.2404L113.668 44.0626C112.749 42.2351 111.115 41.0168 109.072 40.7122C107.03 40.4076 105.089 41.0168 103.66 42.4381L99.983 45.9916L104.681 23.6557C105.089 21.7267 104.374 19.6962 102.945 18.3763C101.515 16.9549 99.4723 16.5488 97.5319 17.0565L89.2596 19.3916C87.1149 20.0007 84.8681 19.087 83.8468 17.0565L76.8 3.04578C75.8808 1.2183 74.0425 0.101501 72 0.101501C69.9574 0.101501 68.1191 1.2183 67.2 3.04578L60.1532 17.0565C59.1319 18.9855 56.8851 20.0007 54.7404 19.3916L46.4681 17.0565C44.5276 16.5488 42.4851 17.0565 41.0553 18.3763C39.5234 19.6962 38.9106 21.7267 39.3191 23.6557L44.017 45.9916L40.3404 42.4381C38.9106 41.0168 36.9702 40.4076 34.9276 40.7122C32.9872 41.1183 31.251 42.2351 30.3319 44.0626L27.5744 49.2404C26.7574 50.9664 24.9191 51.8801 23.0808 51.5755L13.9915 50.2557C11.9489 49.9511 10.0085 50.6618 8.5787 52.0832C7.25105 53.5046 6.63828 55.6366 7.04679 57.5656L8.68083 65.1801C9.19147 67.4137 8.27232 69.6473 6.3319 70.9671L2.45105 73.5053C1.22551 74.3175 0.51062 75.6374 0.51062 77.0588C0.51062 78.4801 1.22551 79.8 2.45105 80.6122L33.2936 100.41C33.7021 100.714 34.0085 101.121 34.1106 101.628C34.2127 102.136 34.1106 102.643 33.8042 103.05L31.3532 106.502C30.0255 108.227 30.0255 110.563 31.251 112.39ZM88.7514 88.0075L74.5532 98.1686V34.1129C74.5532 32.6916 73.4298 31.5748 72 31.5748C70.5702 31.5748 69.4468 32.6916 69.4468 34.1129V98.1031L55.2664 87.9813L59.3361 58.987C59.5404 57.6672 58.6212 56.3473 57.1914 56.1443C55.8638 55.9412 54.5361 56.8549 54.3319 58.2763L50.6272 84.6699L34.417 73.0992C33.2936 72.287 31.6596 72.5916 30.8426 73.7084C30.0256 74.8252 30.3319 76.4496 31.4553 77.2618L65.452 101.503L35.5404 109.446L37.9915 105.994C39.1149 104.471 39.5234 102.542 39.217 100.714C38.8085 98.7855 37.7872 97.161 36.1532 96.1458L6.3319 76.9572L9.19147 75.0282C12.7659 72.5916 14.6042 68.2259 13.6851 63.9618L12.051 56.3473C11.9489 55.9412 12.2553 55.5351 12.3574 55.4336C12.4596 55.332 12.7659 55.0275 13.2766 55.129L22.1617 56.4488C26.1447 57.058 30.1276 55.0275 31.9659 51.474L34.7234 46.2962C35.0298 45.89 35.4383 45.687 35.6425 45.687C35.8468 45.5855 36.2553 45.5855 36.6638 45.9916L42.7915 51.9817C44.1191 53.3015 45.9574 53.5046 47.5915 52.6923C49.2255 51.8801 50.0425 50.0526 49.634 48.3267L44.2213 22.6404C44.2213 22.4374 44.3234 22.2343 44.4255 22.1328C44.5276 22.0313 44.7319 21.9297 44.9362 22.0313L53.2085 24.4679C57.7021 25.7878 62.5021 23.6557 64.6468 19.4931L71.6936 5.48242C71.721 5.45521 71.741 5.42801 71.7596 5.40276C71.8104 5.33377 71.8505 5.27936 72 5.27936C72.2042 5.27936 72.3064 5.48242 72.3064 5.48242L79.3532 19.3916C81.4978 23.5542 86.2979 25.6862 90.7915 24.3664L98.9617 22.1328C99.1659 22.0313 99.3702 22.1328 99.4723 22.2343C99.5744 22.3359 99.7787 22.5389 99.6766 22.742L94.2638 48.4282C93.8553 50.1542 94.6723 51.9817 96.3064 52.7939C97.9404 53.6061 99.7787 53.3015 101.106 52.0832L107.234 46.0931C107.643 45.7885 108.051 45.7885 108.255 45.7885C108.562 45.7885 108.97 45.8901 109.174 46.3977L111.932 51.5755C113.77 55.129 117.753 57.1595 121.736 56.5504L130.826 55.2305C131.234 55.129 131.643 55.332 131.745 55.5351C131.949 55.6366 132.153 55.9412 132.051 56.4488L130.417 63.9618C129.498 68.2259 131.234 72.5916 134.911 75.0282L137.77 76.9572L107.949 96.1458C106.315 97.161 105.191 98.887 104.885 100.714C104.579 102.542 104.987 104.471 106.111 105.994L108.562 109.547L78.4719 101.558L112.545 77.2618C113.668 76.4496 113.974 74.8252 113.157 73.7084C112.34 72.5916 110.706 72.287 109.583 73.0992L93.3895 84.6882L89.668 58.1748C89.4638 56.8549 88.2383 55.8397 86.8085 56.0427C85.4808 56.2458 84.4595 57.4641 84.6638 58.8855L88.7514 88.0075Z" fill="#FFF7F2" fill-opacity="0.25"/>
</g>
<defs>
<clipPath id="clip0_404_63">
<rect width="144" height="133" fill="white"/>
</clipPath>
</defs>
</svg>
