<svg width="151" height="158" viewBox="0 0 151 158" fill="none" xmlns="http://www.w3.org/2000/svg">
<path fill-rule="evenodd" clip-rule="evenodd" d="M62.0958 18.6905C62.0958 11.5936 67.9576 5.76715 75.2634 5.76715C82.5692 5.76715 88.431 11.5936 88.431 18.6905C88.431 19.2283 88.4108 19.6849 88.3496 20.1062C88.2146 21.0367 88.613 21.9642 89.3809 22.5069C90.1487 23.0495 91.156 23.1155 91.9881 22.6775C93.7939 21.7271 95.8836 21.1905 98.1209 21.1905C105.427 21.1905 111.289 27.0169 111.289 34.1139C111.289 40.1016 107.115 45.1853 101.433 46.6282C100.325 46.9097 99.5485 47.9076 99.5485 49.0513V49.0724C99.5485 49.739 99.8147 50.3779 100.288 50.8473C102.651 53.1909 104.099 56.4066 104.099 59.9322C104.099 67.0291 98.2368 72.8555 90.931 72.8555C85.7579 72.8555 81.3248 69.9404 79.1646 65.7051C78.9129 65.2116 78.5111 64.8266 78.032 64.5933V62.0263C79.6562 63.049 81.5717 63.6427 83.6324 63.6427C89.6061 63.6427 94.341 58.6672 94.341 52.6667C94.341 50.8757 93.9154 49.1729 93.1615 47.6692C96.1388 45.7066 98.0703 42.2839 98.0703 38.4367C98.0703 32.4669 93.3651 27.4606 87.3616 27.4606C86.851 27.4606 86.3472 27.498 85.8535 27.57C84.7911 22.7097 80.5611 18.9846 75.4024 18.9846C70.0221 18.9846 65.6467 23.0207 64.8305 28.2066C64.4577 28.1668 64.0805 28.1467 63.7003 28.1467C57.7266 28.1467 52.9917 33.1222 52.9917 39.1227C52.9917 43.36 55.3354 47.0912 58.8284 48.9206C58.311 50.2073 58.0283 51.6125 58.0283 53.0871C58.0283 59.0569 62.7334 64.0632 68.7369 64.0632C70.2714 64.0632 71.7223 63.7355 73.032 63.1483V68.5463C70.6316 71.6357 66.8374 73.6372 62.5577 73.6372C55.2518 73.6372 49.3901 67.8108 49.3901 60.7139C49.3901 57.5042 50.5879 54.557 52.5863 52.2884C53.1946 51.5979 53.3744 50.6291 53.0543 49.7664C52.7342 48.9036 51.9661 48.2864 51.0547 48.1597C44.6489 47.269 39.7749 41.844 39.7749 35.3815C39.7749 28.2846 45.6367 22.4582 52.9425 22.4582C55.0486 22.4582 57.0355 22.9405 58.78 23.7903C59.6283 24.2035 60.6369 24.1039 61.388 23.5329C62.139 22.9618 62.5046 22.0165 62.3333 21.0887C62.1829 20.2744 62.0958 19.4787 62.0958 18.6905ZM73.032 75.3604C70.0688 77.4264 66.4529 78.6372 62.5577 78.6372C52.5648 78.6372 44.3901 70.646 44.3901 60.7139C44.3901 57.6231 45.1885 54.709 46.5918 52.1678C39.7036 49.6348 34.7749 43.0815 34.7749 35.3815C34.7749 25.4494 42.9496 17.4582 52.9425 17.4582C54.3739 17.4582 55.771 17.6217 57.1118 17.9314C57.5157 8.35436 65.5264 0.767151 75.2634 0.767151C84.6193 0.767151 92.3814 7.77201 93.333 16.8163C94.8618 16.4061 96.4688 16.1905 98.1209 16.1905C108.114 16.1905 116.289 24.1817 116.289 34.1139C116.289 41.1784 112.146 47.2635 106.173 50.1856C108.021 52.9911 109.099 56.3419 109.099 59.9322C109.099 69.8643 100.924 77.8555 90.931 77.8555C85.8779 77.8555 81.3192 75.8238 78.032 72.5402L78.032 122.322C87.4264 102.071 109.029 87.9999 133.973 87.9999C139.017 87.9999 143.962 88.5606 148.671 89.6899C149.931 89.8251 150.902 90.8904 150.902 92.1755V92.1973C150.902 92.2932 150.897 92.3885 150.886 92.4827C148.032 128.821 115.833 157.286 76.6403 157.824C76.2462 157.829 75.8691 157.743 75.5318 157.582C75.1948 157.742 74.8182 157.829 74.4247 157.824C35.1909 157.309 2.93899 128.793 0.168659 92.3864C0.0755327 91.1625 0.884588 90.0521 2.07807 89.7657C6.89078 88.6108 11.8963 87.9999 17.0907 87.9999C42.034 87.9999 63.6377 102.067 73.032 122.312L73.032 75.3604ZM78.0478 146.191C85.7784 137.838 95.9221 127.609 106.604 118.204C113.715 111.941 121.099 106.014 128.193 101.242C132.841 98.1151 137.428 95.4412 141.779 93.4992C139.231 93.1668 136.622 92.9999 133.973 92.9999C102.927 92.9999 78.0471 116.423 78.032 144.94L78.032 144.966L78.032 144.992C78.0322 145.392 78.0375 145.792 78.0478 146.191ZM145.24 97.4543C140.894 99.2384 136.074 101.966 130.984 105.391C124.127 110.003 116.92 115.781 109.908 121.956C97.9723 132.466 86.6977 144.038 78.8131 152.761C112.686 151.313 140.143 127.731 145.24 97.4543ZM5.35661 94.1617C8.82891 125.217 35.7364 150 69.6002 152.605C51.4778 131.208 30.2647 112.088 6.715 95.9749C6.06562 95.5306 5.69157 94.8342 5.63422 94.1065C5.54161 94.1247 5.44907 94.1431 5.35661 94.1617ZM72.8825 148.746C55.1105 127.874 34.4469 109.158 11.5736 93.2522C13.3849 93.0853 15.2238 92.9999 17.0907 92.9999C48.1469 92.9999 73.0315 116.43 73.0315 144.948V144.97C73.0315 146.24 72.9811 147.499 72.8825 148.746ZM75.4024 23.9846C72.3316 23.9846 69.6938 26.5778 69.6938 29.9606C69.6938 30.2985 69.7353 30.6785 69.8091 31.1167C69.9669 32.054 69.5796 32.9997 68.8097 33.5571C68.0397 34.1144 67.0203 34.1869 66.1793 33.7441C65.4526 33.3616 64.6103 33.1467 63.7003 33.1467C60.6295 33.1467 57.9917 35.7399 57.9917 39.1227C57.9917 42.2233 60.1925 44.6672 62.9001 45.058C63.7982 45.1876 64.5556 45.7937 64.8789 46.6416C65.2022 47.4894 65.0407 48.4459 64.457 49.1406C63.5603 50.2077 63.0283 51.5673 63.0283 53.0871C63.0283 56.4565 65.6531 59.0632 68.7369 59.0632C71.0445 59.0632 73.0729 57.6328 73.9763 55.4826C74.3568 54.5769 75.2325 53.978 76.2146 53.9519C77.1967 53.9257 78.103 54.4772 78.5312 55.3614C79.493 57.3477 81.4413 58.6427 83.6324 58.6427C86.7032 58.6427 89.341 56.0495 89.341 52.6667C89.341 51.0083 88.6833 49.503 87.6447 48.4306L87.6019 48.3863C86.9835 47.7479 86.7507 46.8291 86.9903 45.9732C87.2299 45.1173 87.9059 44.453 88.7658 44.2283C91.1971 43.5931 93.0703 41.2878 93.0703 38.4367C93.0703 35.0673 90.4455 32.4606 87.3616 32.4606C86.4218 32.4606 85.5246 32.7032 84.7439 33.1291C83.8887 33.5956 82.8403 33.5229 82.0577 32.9426C81.2761 32.3631 80.9018 31.3828 81.0981 30.4301L81.0981 30.4297C81.0988 30.425 81.1028 30.3964 81.106 30.3329C81.1105 30.2416 81.111 30.1376 81.111 29.9606C81.111 26.5956 78.469 23.9846 75.4024 23.9846Z" fill="#FFF7BD" fill-opacity="0.25"/>
</svg>
