<?xml version="1.0" encoding="utf-8"?>
<!-- Generator: Adobe Illustrator 27.4.0, SVG Export Plug-In . SVG Version: 6.00 Build 0)  -->
<svg version="1.1" id="Layer_1" xmlns="http://www.w3.org/2000/svg" xmlns:xlink="http://www.w3.org/1999/xlink" x="0px" y="0px"
	 viewBox="0 0 134 134" style="enable-background:new 0 0 134 134;" xml:space="preserve">
<style type="text/css">
	.st0{fill:none;stroke:#025F38;stroke-width:6;stroke-linecap:round;stroke-linejoin:round;stroke-opacity:0.25;}
</style>
<path class="st0" d="M67,98.3c17.3,0,31.3-14,31.3-31.3S84.3,35.7,67,35.7S35.7,49.7,35.7,67S49.7,98.3,67,98.3z"/>
<path class="st0" d="M67,3v17.9"/>
<path class="st0" d="M111.7,20.9L99.7,34.3"/>
<path class="st0" d="M111.7,111.7L99.7,99.7"/>
<path class="st0" d="M67,131v-17.9"/>
<path class="st0" d="M20.9,111.7l13.4-11.9"/>
<path class="st0" d="M3,67h17.9"/>
<path class="st0" d="M20.9,20.9l13.4,13.4"/>
<path class="st0" d="M47.7,20.9l1.5,4.5"/>
<path class="st0" d="M14.9,46.2l10.4,3"/>
<path class="st0" d="M19.4,86.3l6-1.5"/>
<path class="st0" d="M47.7,114.6l1.5-6"/>
<path class="st0" d="M86.3,113.1l-1.5-4.5"/>
<path class="st0" d="M117.6,87.8l-8.9-3"/>
<path class="st0" d="M117.6,46.2l-8.9,3"/>
<path class="st0" d="M86.3,20.9l-1.5,4.5"/>
</svg>
