<svg width="134" height="134" viewBox="0 0 134 134" fill="none" xmlns="http://www.w3.org/2000/svg">
<path d="M67.0002 98.2559C84.2623 98.2559 98.256 84.2622 98.256 67.0001C98.256 49.738 84.2623 35.7443 67.0002 35.7443C49.7381 35.7443 35.7444 49.738 35.7444 67.0001C35.7444 84.2622 49.7381 98.2559 67.0002 98.2559Z" stroke="#025F38" stroke-opacity="0.25" stroke-width="6" stroke-linecap="round" stroke-linejoin="round"/>
<path d="M67 3V20.8605" stroke="#025F38" stroke-opacity="0.25" stroke-width="6" stroke-linecap="round" stroke-linejoin="round"/>
<path d="M111.651 20.8604L99.7443 34.2558" stroke="#025F38" stroke-opacity="0.25" stroke-width="6" stroke-linecap="round" stroke-linejoin="round"/>
<path d="M131 67H113.14" stroke="#025F38" stroke-opacity="0.25" stroke-width="6" stroke-linecap="round" stroke-linejoin="round"/>
<path d="M111.651 111.651L99.7443 99.7441" stroke="#025F38" stroke-opacity="0.25" stroke-width="6" stroke-linecap="round" stroke-linejoin="round"/>
<path d="M67 131V113.14" stroke="#025F38" stroke-opacity="0.25" stroke-width="6" stroke-linecap="round" stroke-linejoin="round"/>
<path d="M20.8604 111.651L34.2557 99.7441" stroke="#025F38" stroke-opacity="0.25" stroke-width="6" stroke-linecap="round" stroke-linejoin="round"/>
<path d="M3 67H20.8605" stroke="#025F38" stroke-opacity="0.25" stroke-width="6" stroke-linecap="round" stroke-linejoin="round"/>
<path d="M20.8604 20.8604L34.2557 34.2558" stroke="#025F38" stroke-opacity="0.25" stroke-width="6" stroke-linecap="round" stroke-linejoin="round"/>
<path d="M47.6512 20.8604L49.1396 25.3255" stroke="#025F38" stroke-opacity="0.25" stroke-width="6" stroke-linecap="round" stroke-linejoin="round"/>
<path d="M14.9067 46.1628L25.3253 49.1395" stroke="#025F38" stroke-opacity="0.25" stroke-width="6" stroke-linecap="round" stroke-linejoin="round"/>
<path d="M19.3723 86.3488L25.3258 84.8604" stroke="#025F38" stroke-opacity="0.25" stroke-width="6" stroke-linecap="round" stroke-linejoin="round"/>
<path d="M47.6512 114.628L49.1396 108.674" stroke="#025F38" stroke-opacity="0.25" stroke-width="6" stroke-linecap="round" stroke-linejoin="round"/>
<path d="M86.3488 113.14L84.8605 108.674" stroke="#025F38" stroke-opacity="0.25" stroke-width="6" stroke-linecap="round" stroke-linejoin="round"/>
<path d="M117.605 87.8372L108.674 84.8604" stroke="#025F38" stroke-opacity="0.25" stroke-width="6" stroke-linecap="round" stroke-linejoin="round"/>
<path d="M117.605 46.1628L108.674 49.1395" stroke="#025F38" stroke-opacity="0.25" stroke-width="6" stroke-linecap="round" stroke-linejoin="round"/>
<path d="M86.3488 20.8604L84.8605 25.3255" stroke="#025F38" stroke-opacity="0.25" stroke-width="6" stroke-linecap="round" stroke-linejoin="round"/>
</svg>
