<svg width="118" height="137" viewBox="0 0 118 137" fill="none" xmlns="http://www.w3.org/2000/svg">
<path fill-rule="evenodd" clip-rule="evenodd" d="M58.8894 0.960693C60.5463 0.960693 61.8894 2.30384 61.8894 3.96069V29.3365L77.1836 13.7588C78.3444 12.5765 80.2438 12.5591 81.4261 13.7198C82.6083 14.8806 82.6258 16.78 81.465 17.9623L61.8894 37.9008V63.4021L83.0151 51.2037L90.8112 23.6675C91.2626 22.0733 92.9208 21.1468 94.515 21.5982C96.1092 22.0495 97.0357 23.7078 96.5843 25.302L90.4696 46.8993L112.677 34.0763C114.112 33.2478 115.947 33.7393 116.775 35.1741C117.604 36.609 117.112 38.4438 115.677 39.2723L94.0671 51.7504L114.908 56.9851C116.515 57.3887 117.49 59.0186 117.087 60.6256C116.683 62.2325 115.053 63.208 113.446 62.8044L86.601 56.0615L64.9112 68.5856L86.6011 81.1098L113.446 74.367C115.053 73.9633 116.683 74.9388 117.087 76.5458C117.49 78.1527 116.515 79.7826 114.908 80.1862L94.0672 85.4209L115.677 97.899C117.112 98.7275 117.604 100.562 116.775 101.997C115.947 103.432 114.112 103.924 112.677 103.095L90.4651 90.2693L96.5624 111.849C97.013 113.443 96.0856 115.101 94.4912 115.551C92.8968 116.002 91.239 115.074 90.7885 113.48L83.0146 85.9673L61.8894 73.7692V99.2704L81.465 119.209C82.6258 120.391 82.6083 122.291 81.4261 123.451C80.2438 124.612 78.3444 124.595 77.1836 123.412L61.8894 107.835V133.211C61.8894 134.868 60.5463 136.211 58.8894 136.211C57.2326 136.211 55.8894 134.868 55.8894 133.211V107.835L40.5953 123.412C39.4345 124.595 37.5351 124.612 36.3528 123.451C35.1706 122.291 35.1531 120.391 36.3139 119.209L55.8894 99.2705V73.795L34.0111 86.428L26.3893 113.478C25.9399 115.073 24.2828 116.001 22.6881 115.552C21.0933 115.103 20.1648 113.445 20.6141 111.851L26.5662 90.7268L5.14639 103.095C3.71155 103.924 1.87676 103.432 1.04825 101.997C0.219753 100.562 0.711283 98.7275 2.14612 97.899L23.5553 85.5369L2.26862 80.1861C0.661756 79.7822 -0.313425 78.1521 0.0904932 76.5452C0.494412 74.9384 2.12447 73.9632 3.73134 74.3671L31.02 81.2267L52.9123 68.5856L31.0201 55.9446L3.73134 62.8042C2.12447 63.2081 0.494412 62.233 0.0904933 60.6261C-0.313425 59.0192 0.661756 57.3892 2.26862 56.9853L23.5554 51.6344L2.14612 39.2723C0.711283 38.4438 0.219753 36.609 1.04825 35.1741C1.87676 33.7393 3.71155 33.2478 5.14639 34.0763L26.5613 46.4417L20.5923 25.2999C20.1421 23.7053 21.0698 22.0478 22.6643 21.5976C24.2588 21.1474 25.9164 22.0751 26.3665 23.6696L34.0103 50.7428L55.8894 63.3763V37.9007L36.3139 17.9623C35.1531 16.78 35.1706 14.8806 36.3528 13.7198C37.5351 12.5591 39.4345 12.5765 40.5953 13.7588L55.8894 29.3364V3.96069C55.8894 2.30384 57.2326 0.960693 58.8894 0.960693Z" fill="#F4F7FF" fill-opacity="0.25"/>
</svg>
